<svg width="24" height="24" viewBox="0 0 24 24" xmlns="http://www.w3.org/2000/svg"><g clip-path="url(#clip0_847_6072)"><path fill-rule="evenodd" clip-rule="evenodd" d="M-.143 12C-.143 5.294 5.293-.143 12-.143c6.706 0 12.143 5.437 12.143 12.143S18.706 24.143 12 24.143C5.293 24.143-.143 18.706-.143 12zM12 1.857C6.398 1.857 1.857 6.398 1.857 12S6.398 22.143 12 22.143 22.143 17.602 22.143 12 17.602 1.857 12 1.857zm-1.864 6.865a1 1 0 010 1.414L9.27 11h7.872a1 1 0 010 2H9.27l.864.864a1 1 0 01-1.414 1.415l-2.57-2.572a1 1 0 010-1.414l2.57-2.571a1 1 0 011.415 0z"/></g><defs><clipPath id="clip0_847_6072"><path d="M0 0h24v24H0z"/></clipPath></defs></svg>