<svg width="24" height="24" viewBox="0 0 24 24" xmlns="http://www.w3.org/2000/svg"><g clip-path="url(#clip0_1110_8468)"><path fill-rule="evenodd" clip-rule="evenodd" d="M-.144 12C-.144 5.294 5.293-.143 12-.143S24.143 5.294 24.143 12 18.706 24.143 12 24.143C5.293 24.143-.144 18.706-.144 12zM12 1.857C6.398 1.857 1.856 6.398 1.856 12S6.398 22.143 12 22.143 22.143 17.602 22.143 12 17.601 1.857 12 1.857zm-1.864 6.865a1 1 0 010 1.414L9.271 11h7.871a1 1 0 010 2H9.271l.864.864a1 1 0 01-1.414 1.415l-2.572-2.572a1 1 0 010-1.414l2.572-2.571a1 1 0 011.414 0z"/></g><defs><clipPath id="clip0_1110_8468"><path fill="#fff" d="M0 0h24v24H0z"/></clipPath></defs></svg>