<svg width="24" height="24" viewBox="0 0 24 24" xmlns="http://www.w3.org/2000/svg"><path fill-rule="evenodd" clip-rule="evenodd" d="M7.05 3.05A7 7 0 0119 8c0 3.353.717 5.435 1.378 6.646.332.608.655 1.007.88 1.244a3.026 3.026 0 00.306.284l.002.002A1 1 0 0121 18H3a1 1 0 01-.563-1.826l.052-.042c.053-.044.141-.123.254-.242.224-.237.547-.636.88-1.244C4.282 13.435 5 11.353 5 8a7 7 0 012.05-4.95zM5.15 16h13.7a9.421 9.421 0 01-.228-.396C17.783 14.065 17 11.647 17 8A5 5 0 007 8c0 3.647-.783 6.065-1.622 7.604-.076.14-.153.271-.229.396zm4.618 4.135a1 1 0 011.367.363 1 1 0 001.73 0 1 1 0 111.73 1.004 3 3 0 01-5.19 0 1 1 0 01.363-1.367z"/></svg>