<svg width="24" height="24" viewBox="0 0 24 24" xmlns="http://www.w3.org/2000/svg"><path fill-rule="evenodd" clip-rule="evenodd" d="M4.75 4.75v14.5h14.5V4.75H4.75zm-2-.25c0-.966.784-1.75 1.75-1.75h15c.966 0 1.75.784 1.75 1.75v15a1.75 1.75 0 01-1.75 1.75h-15a1.75 1.75 0 01-1.75-1.75v-15z"/><path fill-rule="evenodd" clip-rule="evenodd" d="M16.5 1.25a1 1 0 011 1v3a1 1 0 11-2 0v-3a1 1 0 011-1zm-9 0a1 1 0 011 1v3a1 1 0 01-2 0v-3a1 1 0 011-1zm-4.75 7a1 1 0 011-1h16.5a1 1 0 110 2H3.75a1 1 0 01-1-1z"/></svg>