<svg width="24" height="24" viewBox="0 0 24 24" xmlns="http://www.w3.org/2000/svg"><path fill-rule="evenodd" clip-rule="evenodd" d="M18.789 3a.56.56 0 00-.396.164l-.004.004-8.678 8.61-.494 2.988 2.962-.53 8.658-8.652a.547.547 0 00.121-.596.548.548 0 00-.12-.178l-.003-.003-1.651-1.643A.555.555 0 0018.789 3zm-.981-1.805a2.56 2.56 0 012.791.555l.002.002 1.642 1.635.002.001a2.547 2.547 0 01.558 2.79c-.13.31-.32.591-.558.827l-8.875 8.867a1 1 0 01-.53.277l-4.664.835a1 1 0 01-1.163-1.147l.778-4.705a1 1 0 01.282-.547l8.906-8.835c.237-.238.519-.426.829-.555z"/><path fill-rule="evenodd" clip-rule="evenodd" d="M3.565 5A.565.565 0 003 5.565v14.87a.565.565 0 00.565.565h14.87a.565.565 0 00.565-.565v-4.696a1 1 0 112 0v4.696A2.566 2.566 0 0118.435 23H3.565A2.566 2.566 0 011 20.435V5.565A2.565 2.565 0 013.565 3h4.696a1 1 0 010 2H3.565z"/></svg>