<svg width="24" height="24" viewBox="0 0 24 24" xmlns="http://www.w3.org/2000/svg"><path fill-rule="evenodd" clip-rule="evenodd" d="M5.5 4v16h13V8.664L13.836 4H5.5zM4.013 2.513A1.75 1.75 0 015.25 2h9a1 1 0 01.707.293l5.25 5.25a1 1 0 01.293.707v12A1.75 1.75 0 0118.75 22H5.25a1.75 1.75 0 01-1.75-1.75V3.75c0-.464.184-.91.513-1.237z"/><path fill-rule="evenodd" clip-rule="evenodd" d="M14.25 2a1 1 0 011 1v4.25h4.25a1 1 0 110 2h-5.25a1 1 0 01-1-1V3a1 1 0 011-1zM8.668 13.918a1 1 0 011.414 0L12 15.836l1.918-1.918a1 1 0 011.414 1.414l-2.625 2.625a1 1 0 01-1.414 0l-2.625-2.625a1 1 0 010-1.414z"/><path fill-rule="evenodd" clip-rule="evenodd" d="M12 10.25a1 1 0 011 1v6a1 1 0 11-2 0v-6a1 1 0 011-1z"/></svg>