<svg width="24" height="24" viewBox="0 0 24 24" xmlns="http://www.w3.org/2000/svg"><path fill-rule="evenodd" clip-rule="evenodd" d="M15.75 4.414l-.652.652-.934.934L18 9.836l1.586-1.586-3.836-3.836zm.836 6.836L12.75 7.414l-1.07 1.072c-2.308 2.31-4.618 4.622-6.93 6.93-.002.997-.001 1.995 0 2.994v.84h3.836l8-8zm-5.172 8h8.836a1 1 0 110 2H4.75a2 2 0 01-2-2v-.838c-.001-1-.002-2 0-3A2 2 0 013.336 14c2.311-2.306 4.62-4.616 6.927-6.926l1.779-1.78a4799.58 4799.58 0 012.463-2.464 1.75 1.75 0 012.488 0l.003.004 4.174 4.173a1.75 1.75 0 010 2.488c-.002 0-.003.002-.004.003l-9.753 9.753z"/></svg>