<svg width="24" height="24" viewBox="0 0 24 24" xmlns="http://www.w3.org/2000/svg"><g clip-path="url(#clip0_847_8731)" fill-rule="evenodd" clip-rule="evenodd"><path d="M20.323 8.59a1 1 0 011.412-.078c.683.61 1.254 1.2 1.68 1.661l.007.008a2.714 2.714 0 010 3.638l-.01.01c-.932 1.003-2.47 2.495-4.413 3.742-1.939 1.243-4.347 2.286-7 2.286h-.685a1 1 0 110-2H12c2.13 0 4.162-.843 5.919-1.97 1.747-1.12 3.154-2.479 4.022-3.413a.715.715 0 000-.95 23.117 23.117 0 00-1.54-1.522 1 1 0 01-.078-1.412zM2.059 11.526a.714.714 0 00.002.95 20.257 20.257 0 005.062 4.017 1 1 0 01-.977 1.745A22.257 22.257 0 01.58 13.823l-.003-.005a2.714 2.714 0 010-3.637l.01-.01c.932-1.003 2.47-2.495 4.414-3.742C6.94 5.186 9.348 4.143 12 4.143h.021c2.053.043 4.062.601 5.843 1.624a1 1 0 01-.996 1.734 10.246 10.246 0 00-4.878-1.358c-2.127.003-4.155.845-5.909 1.97-1.746 1.12-3.154 2.479-4.022 3.413z"/><path d="M22.136 1.864a1 1 0 010 1.415L3.279 22.136a1 1 0 01-1.415-1.415L20.722 1.864a1 1 0 011.414 0z"/><path d="M11.998 9.571a2.429 2.429 0 00-2.426 2.427c.003.642.26 1.257.716 1.71a1 1 0 01-1.41 1.418 4.429 4.429 0 01-1.306-3.122V12A4.429 4.429 0 0112 7.571h.004a4.429 4.429 0 013.123 1.307 1 1 0 01-1.419 1.41 2.429 2.429 0 00-1.71-.717zm3.49 3.28a1 1 0 01.358 1.368 4.428 4.428 0 01-1.639 1.617 1 1 0 11-.986-1.74 2.43 2.43 0 00.899-.887 1 1 0 011.368-.358z"/></g><defs><clipPath id="clip0_847_8731"><path d="M0 0h24v24H0z"/></clipPath></defs></svg>