<svg width="24" height="24" viewBox="0 0 24 24" xmlns="http://www.w3.org/2000/svg"><path d="M12 12.667a.667.667 0 100-1.333.667.667 0 000 1.333z"/><path fill-rule="evenodd" clip-rule="evenodd" d="M12 12.334a.333.333 0 100-.667.333.333 0 000 .667zM10.333 12a1.667 1.667 0 113.334 0 1.667 1.667 0 01-3.334 0z"/><path d="M16.667 12.667a.667.667 0 100-1.333.667.667 0 000 1.333z"/><path fill-rule="evenodd" clip-rule="evenodd" d="M16.667 12.334a.333.333 0 100-.667.333.333 0 000 .667zM15 12a1.667 1.667 0 113.333 0A1.667 1.667 0 0115 12z"/><path d="M7.333 12.667a.667.667 0 100-1.333.667.667 0 000 1.333z"/><path fill-rule="evenodd" clip-rule="evenodd" d="M7.333 12.334a.333.333 0 100-.667.333.333 0 000 .667zM5.667 12A1.667 1.667 0 119 12a1.667 1.667 0 01-3.333 0z"/></svg>