<svg width="24" height="24" viewBox="0 0 24 24" xmlns="http://www.w3.org/2000/svg"><path fill-rule="evenodd" clip-rule="evenodd" d="M3.538 3A.538.538 0 003 3.538v16.924c0 .297.241.538.538.538h16.924a.539.539 0 00.538-.538V3.538A.538.538 0 0020.462 3H3.538zM1 3.538A2.538 2.538 0 013.538 1h16.924A2.538 2.538 0 0123 3.538v16.924A2.538 2.538 0 0120.462 23H3.538A2.538 2.538 0 011 20.462V3.538z"/><path fill-rule="evenodd" clip-rule="evenodd" d="M12.306 7.887a1.571 1.571 0 00-1.878 1.542 1 1 0 11-2 0A3.571 3.571 0 1113 12.857v.857a1 1 0 01-2 0V12a1 1 0 011-1 1.571 1.571 0 00.306-3.113z"/><path d="M12 16.286a1.286 1.286 0 101.285 1.285A1.302 1.302 0 0012 16.287z"/></svg>