<svg width="24" height="24" viewBox="0 0 24 24" xmlns="http://www.w3.org/2000/svg"><g clip-path="url(#clip0_847_8732)" fill-rule="evenodd" clip-rule="evenodd"><path d="M2.059 11.526a.714.714 0 000 .948c.868.934 2.276 2.293 4.022 3.414 1.757 1.126 3.788 1.97 5.92 1.97 2.13 0 4.162-.844 5.918-1.97 1.747-1.121 3.154-2.48 4.023-3.414a.714.714 0 000-.948c-.869-.934-2.276-2.293-4.023-3.414-1.756-1.126-3.788-1.97-5.919-1.97-2.13 0-4.162.844-5.919 1.97-1.746 1.121-3.154 2.48-4.022 3.414zm2.943-5.097C6.94 5.186 9.348 4.143 12 4.143s5.06 1.043 7 2.286c1.943 1.247 3.482 2.739 4.414 3.742l.01.01a2.714 2.714 0 010 3.638l-.01.01c-.932 1.003-2.471 2.495-4.414 3.742-1.938 1.243-4.347 2.286-6.999 2.286-2.652 0-5.06-1.043-6.998-2.286-1.944-1.247-3.482-2.739-4.414-3.742l-.01-.01a2.714 2.714 0 010-3.638l.01-.01c.932-1.003 2.47-2.495 4.414-3.742z"/><path d="M12 9.571a2.429 2.429 0 100 4.857 2.429 2.429 0 000-4.857zM7.572 12a4.429 4.429 0 118.857 0 4.429 4.429 0 01-8.857 0z"/></g><defs><clipPath id="clip0_847_8732"><path d="M0 0h24v24H0z"/></clipPath></defs></svg>