<svg width="26" height="24" viewBox="0 0 26 24" xmlns="http://www.w3.org/2000/svg"><path fill-rule="evenodd" clip-rule="evenodd" d="M2.878 12.001c0-.175.065-.344.18-.474.869-.934 2.276-2.293 4.023-3.414C8.838 6.987 10.87 6.143 13 6.143s4.163.844 5.919 1.97c1.747 1.121 3.154 2.48 4.023 3.414a.714.714 0 010 .948c-.869.934-2.276 2.293-4.023 3.414-1.756 1.126-3.788 1.97-5.919 1.97-2.13 0-4.162-.844-5.919-1.97-1.747-1.121-3.154-2.48-4.022-3.414a.714.714 0 01-.18-.474zM13 4.144c-2.652 0-5.06 1.043-6.998 2.286-1.944 1.247-3.482 2.74-4.415 3.742l-.01.01a2.714 2.714 0 000 3.638l.01.01c.933 1.003 2.471 2.495 4.415 3.742 1.938 1.243 4.346 2.286 6.998 2.286s5.06-1.043 6.999-2.286c1.943-1.247 3.482-2.739 4.414-3.742l.01-.01a2.714 2.714 0 000-3.638l-.01-.01c-.933-1.003-2.471-2.495-4.414-3.742C18.06 5.187 15.652 4.144 13 4.144zM10.572 12a2.429 2.429 0 114.857 0 2.429 2.429 0 01-4.857 0zM13 7.572a4.429 4.429 0 100 8.858 4.429 4.429 0 000-8.858z"/></svg>