<svg width="24" height="24" viewBox="0 0 24 24" xmlns="http://www.w3.org/2000/svg"><g clip-path="url(#clip0_1049_11679)" fill-rule="evenodd" clip-rule="evenodd"><path d="M8.338 4.77a1 1 0 00-.591-1.904l-.669.154a1 1 0 00-.75 1.198 1.04 1.04 0 01-.793 1.25 1.091 1.091 0 01-1.286-.824 1 1 0 00-1.176-.755l-1.337.274-.012.003A2.388 2.388 0 00-.082 7.088l.104.479a915.652 915.652 0 001.23 5.594 1 1 0 101.953-.436 927.388 927.388 0 01-1.228-5.582l-.107-.495a1.004 1.004 0 00-.012-.048.388.388 0 01.288-.48l.53-.108a3.091 3.091 0 003.273 1.412h.004A3.04 3.04 0 008.338 4.77zM13.722.525a2.526 2.526 0 011.96.027l1.389.651a1 1 0 01.481 1.329 1.265 1.265 0 00.665 1.703 1.263 1.263 0 001.67-.747 1 1 0 011.323-.59l1.457.6.063.029a2.526 2.526 0 011.22 3.207l-.006.017-6.515 15.326-.001.004a2.526 2.526 0 01-3.292 1.334l-.008-.004-6.96-2.965-.003-.002a2.526 2.526 0 01-1.333-3.292l.007-.018.752-1.708 5.76-13.558a2.526 2.526 0 011.37-1.343zm1.136 1.85a.526.526 0 00-.67.281v.002L8.424 16.226l-.75 1.703a.526.526 0 00.28.678h.001l6.953 2.963a.526.526 0 00.682-.278v-.001L22.098 5.98a.525.525 0 00-.233-.65l-.603-.248a3.264 3.264 0 01-5.802-2.426l-.602-.282z"/></g><defs><clipPath id="clip0_1049_11679"><path fill="#fff" d="M0 0h24v24H0z"/></clipPath></defs></svg>