<svg width="24" height="24" viewBox="0 0 24 24" xmlns="http://www.w3.org/2000/svg"><path fill-rule="evenodd" clip-rule="evenodd" d="M5.5 9.688V4h7.75v4.25a1 1 0 001 1h4.25V20h-13v-1.063a1 1 0 10-2 0v1.313A1.75 1.75 0 005.25 22h13.5a1.75 1.75 0 001.75-1.75v-12a1 1 0 00-.293-.707l-5.25-5.25A1 1 0 0014.25 2h-9A1.75 1.75 0 003.5 3.75v5.938a1 1 0 102 0zM17.086 7.25L15.25 5.414V7.25h1.836zM5 13.25a1 1 0 100 2h3.586l-.918.918a1 1 0 101.414 1.414l2.625-2.625a1 1 0 000-1.414l-2.625-2.625a1 1 0 00-1.414 1.414l.918.918H5z"/></svg>