<svg width="40" height="40" viewBox="0 0 40 40" xmlns="http://www.w3.org/2000/svg"><path d="M38.974 9.736c.175-.864-.21-1.349-1.117-1.349h-4.572c-1.047 0-1.431.45-1.745 1.107 0 0-2.424 5.476-5.432 8.766-.966 1.063-1.135 1.383-1.668 1.383-.43 0-.628-.355-.628-1.314V9.922c0-1.176-.138-1.535-1.117-1.535h-7.278c-.562 0-.937.303-.937.743 0 1.107 1.71 1.357 1.71 4.358v6.193c0 1.245-.07 1.73-.663 1.73-1.57 0-5.65-5.33-7.743-11.42-.42-1.245-.871-1.604-2.062-1.604h-4.56C.498 8.387 0 8.85 0 9.507c0 1.21 1.43 6.815 7.05 14.322 3.77 5.05 9.048 7.784 13.515 7.784 2.723 0 3.247-.468 3.247-1.61v-3.875c0-.968.383-1.384.942-1.384.628 0 1.555.22 4.147 2.752 3.07 2.906 3.28 4.117 4.956 4.117h5.13c.524 0 1.013-.242 1.013-1.107 0-1.142-1.501-3.183-3.805-5.604-.942-1.246-2.478-2.595-2.967-3.218-.698-.726-.488-1.142 0-1.902 0 0 5.222-7.624 5.746-10.046z"/></svg>