<svg width="40" height="40" viewBox="0 0 40 40" xmlns="http://www.w3.org/2000/svg"><path fill-rule="evenodd" clip-rule="evenodd" d="M5.635 6.681C2.805 6.816.533 8.948.349 11.669.173 14.276 0 17.483 0 20c0 2.517.173 5.724.35 8.331.183 2.72 2.456 4.853 5.285 4.988 4.097.195 9.953.431 14.365.431 4.412 0 10.268-.236 14.365-.431 2.83-.135 5.102-2.267 5.286-4.988.176-2.607.349-5.814.349-8.331 0-2.517-.173-5.724-.35-8.331-.183-2.72-2.456-4.853-5.285-4.988C30.268 6.486 24.412 6.25 20 6.25c-4.412 0-10.268.236-14.365.431zM27.5 20l-11.25 6.25v-12.5L27.5 20z"/></svg>