<svg width="508" height="509" viewBox="0 0 508 509" fill="none" xmlns="http://www.w3.org/2000/svg"><path opacity=".1" d="M157.613 222.915c.607-1.215 1.213-2.429 1.213-4.252l-1.213-.607-8.487-9.718 11.518 5.466c2.425-4.859 4.85-9.718 7.881-14.577l-53.346-30.978-61.227-71.065c-.606.607-1.212 1.822-1.819 2.43l55.165 63.776-70.32-40.695c-1.818 3.037-3.03 5.466-4.85 8.503l86.688 49.807-89.112-44.34c-1.212 3.037-3.031 6.074-4.244 8.503l117.604 58.918 9.7 10.933-136.397-47.377c-.606 1.215-.606 1.822-1.212 3.037l141.852 49.199.606 3.037zm18.793-34.621l-118.21-95.97c-.607.608-1.213 1.823-1.819 2.43l118.21 95.969c.606-.607 1.212-1.215 1.819-2.429zm-19.399 35.836L10.305 184.042c-.606 3.037-1.818 6.074-2.424 9.718l146.701 40.088c.607-3.644 1.819-6.681 2.425-9.718zm288.554 35.229h-34.554l-2.425 17.007 72.745 11.541-35.766-28.548zm-32.735-30.37l.606-4.252-4.85 1.215 4.244 3.037zm-7.275-6.074l8.487-1.822.606-1.822-9.699 3.037.606.607zm-4.243.608l-6.668 1.214 6.668-1.214zm-23.642-23.082l43.04-17.007 4.85-30.977-61.227 37.051 13.337 10.933zm-16.368-13.362l64.258-38.874 7.275-45.555-85.475 73.496 13.942 10.933zm53.953 47.984l-2.425 15.185h21.217l-18.792-15.185zm-10.306 43.733l-46.678-7.289 7.881 9.111 36.979 10.326 1.818-12.148zm-3.637 21.866l-24.248-6.681 1.818 1.822 22.43 7.896v-3.037zm-2.425 33.407l15.761 9.111h1.213l-1.213-1.822-15.761-7.289zm-.606-15.792l1.819-12.148-17.581-6.074 15.762 18.222zm-25.461-24.903l-1.212-1.215-10.912-3.037 12.124 4.252zm21.824 49.806l-19.399-3.037-15.155-2.429 31.522 25.51 3.032-20.044zm-3.638 23.081l-36.978-29.762-12.73-1.822 46.677 46.769 3.031-15.185zm-4.243 26.726l-61.227-61.347-2.425-.608 61.833 71.673 1.819-9.718zm-10.306-55.881l11.518 1.822-31.522-18.222 20.004 16.4zm-2.424 135.45l-61.227-70.458 20.611 52.843 40.009 22.474.607-4.859zm-45.466-20.044l-21.823-57.096-3.031-3.644 15.761 55.273 9.093 5.467zm-24.854-65.599l-4.244-10.933 2.425 9.111 1.819 1.822zm-12.73 44.34l-3.638-13.363 2.425 12.755 1.213.608zm-81.232-52.844l-4.243 4.859 1.818 1.215 2.425-6.074zm-3.031 9.111l-3.031-1.822-6.668 8.504v20.651l9.699-27.333zm-9.699 1.822l4.243-4.859-4.243-2.429v7.288zm-3.031 3.645v-7.289l-13.943 24.903 13.943-17.614zm-29.705-86.251l-18.792-3.037-35.766 13.97-4.85 9.111 13.943 7.897 45.465-27.941zm-49.102 29.155l-12.124-6.681-12.124 21.259 24.248-14.578zm-18.792-49.199l-16.368 3.037 3.637.608 12.73-3.645zm-11.518 27.333l-1.819.607 1.213.608.606-1.215zm-8.487-21.866l-5.456-.608-21.217 4.252 4.85 3.037 21.823-6.681zm-30.917 1.215l16.974-3.037-32.129-4.86 15.155 7.897zM252.181 149.42l-.606-47.377-15.155-12.148-9.699 17.615 3.031 16.399 22.429 25.511zm-13.942-61.955L252.181 98.4l-.606-35.23-13.336 24.296zm-20.611-11.54l-.607-1.822-3.637-3.037 2.425 7.896 1.819-3.037zm-18.186 31.585l-8.487-29.763v8.504l8.487 21.259zm-1.213 4.251l-6.668-17.007.606 28.548 6.062-11.541zM187.924 77.14V65.599l-5.456-20.044-9.093-7.289 14.549 38.874zM508 259.359h-57.59l36.373 29.155 18.186 3.037c0 1.215-.606 1.822-.606 3.037l-13.337-1.822 12.124 9.719c0 1.214-.606 2.429-.606 3.644l-16.974-13.97-77.594-12.148-1.818 12.148 94.567 25.51c-.606 3.037-1.818 6.074-2.424 9.111l-93.356-25.51-.606 3.037 90.931 31.584c-.607 1.215-.606 1.823-1.213 3.037l-90.324-31.584-2.425 13.97 3.637 4.252 45.465 22.473 36.979 6.074c-.606 1.215-.606 1.823-1.212 3.037l-26.673-4.251 23.035 11.54c-1.212 3.037-3.031 6.074-4.243 8.504l-50.921-25.511-3.638-.607 1.213 1.214 50.921 29.763c-1.818 3.037-3.031 5.466-4.85 8.503l-26.673-15.185 21.218 24.296c-.607.608-1.213 1.823-1.819 2.43l-27.279-31.585-38.797-22.473-3.031 20.651 58.802 47.984c-.607.608-1.213 1.823-1.819 2.43l-57.59-46.77-2.425 15.185 46.678 46.163c-2.424 2.429-4.243 4.859-6.668 6.681l-41.828-41.303-1.819 10.326 33.948 39.481c-.606.607-1.819 1.214-2.425 1.822l-32.735-37.659-8.487 52.844 6.062 10.326c-.606.607-1.818 1.214-2.425 1.214l-4.243-6.681-.606 4.252 3.031 3.644c-.607.608-1.819 1.215-2.425 1.822l-1.213-1.214-.606 2.429c-1.212.608-3.031 1.215-4.243 2.43l-36.979-20.652 12.124 32.192c-1.212.608-1.818.608-3.031 1.215l-13.942-35.836-9.7-5.467 12.731 44.948c-7.275 2.429-14.549 4.251-22.43 6.074l-18.792-66.814-1.819-1.215 13.337 69.851c-1.213 0-1.819.607-3.031.607l-13.943-72.28-28.492-15.793L258.85 509h-3.031l-1.213-94.147-23.036-12.755-16.973 104.472c-1.213 0-1.819-.607-3.031-.607l16.973-105.08-20.611-11.541-12.124 34.622 1.213 78.962c-1.213 0-1.819-.607-3.031-.607l-.607-69.851-21.823 63.169c-1.212-.607-1.819-.607-3.031-1.215l24.854-71.065v-25.511l-22.429 27.94-30.917 55.881c-6.668-3.644-13.942-7.289-20.004-11.541l55.771-100.22-9.094-4.86-70.926 88.073c-.606-.607-1.818-1.214-2.424-1.822l70.925-87.465-20.004-11.541-80.625 69.851c-.607-.608-1.213-1.822-1.82-2.43l80.02-68.636-23.036-12.755-30.31 18.222-32.129 57.095c-5.456-6.681-10.306-13.362-15.155-20.651l6.668-12.148-10.912 6.681c-.606-.607-1.212-1.822-1.818-2.429l15.155-9.111 24.248-43.733-55.165 21.866-3.637-9.111 66.077-26.118-3.638-1.822-66.076 18.829c-2.425-7.288-4.243-14.577-6.062-22.473l43.647-12.756-5.456-3.037-40.01 7.897c0-1.215-.606-1.823-.606-3.037l36.372-7.289-18.792-10.933-20.61-3.037v-3.037l12.73 1.822L0 272.722v-3.644l22.43 12.755 48.496 7.896 31.523-6.074 12.73-22.474H.606v-9.718h120.029l4.849-9.111 16.368 9.111h10.912v9.718h-10.912l-9.093 17.008 21.217-6.074c1.213 9.111 4.243 18.222 7.881 26.725l-10.912 4.252 13.943 2.43c.606 1.822 1.818 3.036 2.425 4.251l-46.072 27.941 22.43 12.755 32.735-27.94c.606.607 1.212 1.214 1.818 2.429l-32.129 27.333 20.005 10.933 23.036-27.94c.606.607 1.819 1.215 2.425 1.822l-22.43 27.94 8.487 4.86 16.974-30.37c6.062 4.859 12.73 8.503 20.005 11.54l-16.974 30.37 5.456 3.037 9.699-12.148 6.668-19.436c1.213.607 1.819.607 3.031 1.214l-4.243 11.541 8.487-10.326c1.212 0 2.425.608 3.031.608l-14.549 17.614-4.85 14.578 20.005 10.933 6.668-41.911c1.213 0 1.819.608 3.031.608l-6.668 43.125 22.43 12.755-.607-54.665h3.031l.607 56.487 27.885 15.793-9.093-46.162-7.275-26.726c7.881-1.215 15.762-3.037 23.036-6.074l16.974 44.34 64.258 71.673.606-5.466-70.926-119.658c.606-.607 1.819-1.215 2.425-1.822l69.107 116.62 8.487-51.628-64.258-73.496c3.638-3.037 6.669-6.074 10.306-9.718l7.88 7.896 11.518 1.822-16.367-13.362c.606-.608 1.212-1.823 1.818-2.43l20.611 16.4 15.156 2.429-30.917-25.51c3.031-4.252 5.456-9.111 7.275-13.97l50.921 25.51-20.611-24.296-26.673-9.111c1.212-3.644 2.425-7.896 3.637-11.54l7.274 1.822-6.062-7.289c0-1.215.607-3.037.607-4.252l50.315 7.897 2.425-16.4h-52.134v-9.719h53.952l3.031-17.614-7.88-6.074-43.647 8.503-6.669 1.823c-1.212-8.504-4.243-16.4-7.274-24.296l27.279-10.934-13.336-10.325-19.399 11.54c-.606-.607-1.212-1.822-1.818-2.429l18.186-10.933-13.337-10.934-12.73 10.934c-.606-.608-1.213-1.215-1.819-2.43l12.731-10.933-14.549-11.541-9.093 11.541c-.607-.608-1.819-1.215-2.425-1.822l9.093-11.541-5.456-4.859-7.274 13.363c-6.063-4.252-12.731-8.504-20.005-11.541l9.699-17.007-6.668-5.467-7.275 20.652c-1.212-.607-1.818-.608-3.031-1.215l7.275-21.866-15.762-12.756-4.849 30.978c-1.213 0-1.819-.608-3.031-.608l5.455-32.799-19.398-15.793.606 47.985h-4.243l-20.005-23.081 2.425 13.363 3.031 10.933c-7.881 1.214-15.155 3.644-22.43 6.681l-6.062-20.651-10.305 18.829 4.849 7.896c-.606.607-1.818 1.215-2.424 1.822l-3.638-6.681-4.243 7.896v4.252c-1.213.607-1.819 1.215-3.031 2.429v-1.214l-.606 1.214.606.608c-.606.607-1.213 1.215-2.425 1.822l-1.819-1.822-2.424-1.215 3.637 3.644c-2.425 2.43-4.85 4.252-6.668 6.682l-28.492-28.548-89.112-69.85c.606-.608 1.212-1.823 1.818-2.43l60.621 50.414-55.771-55.881 6.668-6.681 90.931 91.109 1.212-2.429-83.656-96.577c.606-.607 1.819-1.214 2.425-1.822l83.05 95.969 10.912-18.829-60.015-101.436c.607-.607 1.819-1.215 2.425-1.822l59.408 99.614 4.244-7.289-.606-41.91-19.399-51.022-16.368-13.363c1.213-.608 1.819-1.215 3.031-1.215l10.912 9.111-4.243-11.54c1.212-.608 1.818-.608 3.031-1.215l6.062 16.4 9.699 7.896-7.88-27.333c7.274-2.43 14.548-4.86 22.429-6.682L211.566 65.6l4.243 3.644-12.73-64.384c1.212 0 1.818-.607 3.031-.607l13.336 67.421L250.363 16.4V0h3.031v11.54L259.456.608c8.487 0 16.974.608 25.461 1.823L254 58.31l.606 42.518 20.005 16.4L292.797 3.037c1.213 0 1.819.607 3.031.607L277.036 119.05l16.367 13.363 41.222-119.05c1.213.607 1.819.607 3.031 1.215l-41.222 120.265 7.275 5.466L367.36 26.726c6.669 3.644 13.943 7.288 20.005 11.54l-65.47 117.228 6.062 4.859L412.22 55.881c.606.607 1.818 1.215 2.424 1.822l-84.262 104.472 14.549 12.148 88.506-76.532 3.031-19.436c.606 1.214 1.818 1.822 2.425 3.036l-2.425 13.97 8.487-7.288c.606.607 1.212 1.822 1.818 2.43l-10.911 9.718-6.669 46.162 41.222-24.903c.606.607 1.213 1.822 1.819 2.429l-43.647 26.118-4.85 31.585 64.864-26.118 3.638 9.111-70.32 27.94 72.744-20.651c2.425 7.289 4.85 14.577 6.669 22.473l-83.05 23.689-.607 2.43 85.475-17.008c0 1.215.606 1.823.606 3.037l-86.687 17.008-1.212 7.288 23.036 18.83H508v9.718zm-354.024-20.651L3.637 214.412c0-1.215.606-1.822.606-3.037l150.339 24.296c-.606 1.214-.606 2.429-.606 3.037z" fill="#003E66"/></svg>