<?xml version="1.0" encoding="utf-8"?><svg width="24" height="24" xmlns="http://www.w3.org/2000/svg" viewBox="0 0 24 24"><g clip-path="url(#cclip0_1110_8468)"><path fill-rule="evenodd" clip-rule="evenodd" d="M-.144 12C-.144 5.294 5.293-.143 12-.143c6.707 0 12.143 5.437 12.143 12.143S18.706 24.143 12 24.143C5.293 24.143-.144 18.706-.144 12zM12 1.857C6.398 1.857 1.856 6.398 1.856 12S6.398 22.143 12 22.143c5.602 0 10.143-4.541 10.143-10.143S17.601 1.857 12 1.857zm-1.864 6.865a1 1 0 010 1.414L9.271 11h7.871a1 1 0 010 2H9.271l.864.864a1 1 0 01-1.414 1.415l-2.572-2.572a1 1 0 010-1.414l2.572-2.571a1 1 0 011.414 0z"/></g><defs><clipPath id="cclip0_1110_8468"><path fill="#fff" d="M0 0h24v24H0z"/></clipPath></defs></svg>