<?xml version="1.0" encoding="utf-8"?><svg width="40" height="40" xmlns="http://www.w3.org/2000/svg" viewBox="0 0 40 40"><path fill-rule="evenodd" clip-rule="evenodd" d="M20 39.453c10.744 0 19.453-8.71 19.453-19.453C39.453 9.256 30.743.547 20 .547 9.256.547.547 9.257.547 20c0 9.588 6.936 17.556 16.065 19.159v-13.21h-4.95v-5.49h4.95v-4.185c0-4.76 2.908-7.39 7.362-7.39 2.132 0 4.363.37 4.363.37v4.675h-2.46c-2.42 0-3.174 1.466-3.174 2.968v3.561h5.405l-.864 5.491h-4.541v13.274a20.08 20.08 0 01-2.88.23H20z"/></svg>