<?xml version="1.0" encoding="utf-8"?><svg width="24" height="24" xmlns="http://www.w3.org/2000/svg" viewBox="0 0 24 24"><path fill-rule="evenodd" clip-rule="evenodd" d="M1.5 3.5a2 2 0 012-2h3.375a1 1 0 010 2H3.5v4.25a1 1 0 01-2 0V3.5zm14.625-1a1 1 0 011-1H20.5a2 2 0 012 2v4.25a1 1 0 11-2 0V3.5h-3.375a1 1 0 01-1-1zM7.8 5.75a1 1 0 011 1v10.5a1 1 0 11-2 0V6.75a1 1 0 011-1zm4.2 0a1 1 0 011 1v10.5a1 1 0 11-2 0V6.75a1 1 0 011-1zm4.2 0a1 1 0 011 1v10.5a1 1 0 11-2 0V6.75a1 1 0 011-1zm-13.7 9.5a1 1 0 011 1v4.25h3.375a1 1 0 110 2H3.5a2 2 0 01-2-2v-4.25a1 1 0 011-1zm19 0a1 1 0 011 1v4.25a2 2 0 01-2 2h-3.375a1 1 0 110-2H20.5v-4.25a1 1 0 011-1z"/></svg>