<?xml version="1.0" encoding="utf-8"?><svg width="26" height="25" xmlns="http://www.w3.org/2000/svg" viewBox="0 0 26 25"><path fill-rule="evenodd" clip-rule="evenodd" d="M23.136 3.282a1 1 0 00-1.415-1.415l-3.539 3.54a12.246 12.246 0 00-5.161-1.261h-.02c-2.653 0-5.061 1.043-7 2.286-1.943 1.247-3.481 2.739-4.413 3.742l-.01.01a2.714 2.714 0 000 3.638l.003.004a22.256 22.256 0 004.44 3.741l-3.157 3.157A1 1 0 004.28 22.14l4.046-4.047a.94.94 0 00.032-.032l2.932-2.932.003-.003 4.83-4.83.003-.003 2.932-2.931.031-.032 4.048-4.047zm-9.282 6.453l-3.122 3.122a2.427 2.427 0 01-.16-.856 2.429 2.429 0 012.426-2.427c.296.002.585.057.856.16zm-.85-2.16c.833.003 1.64.24 2.334.676l1.334-1.334a10.245 10.245 0 00-3.682-.771c-2.127.003-4.155.845-5.909 1.97-1.746 1.12-3.154 2.479-4.022 3.413a.714.714 0 00.002.95 20.255 20.255 0 004.412 3.637l1.775-1.775a4.428 4.428 0 01-.676-2.334v-.004A4.429 4.429 0 0113 7.574h.004zm8.32 1.018a1 1 0 011.411-.078c.683.61 1.255 1.2 1.68 1.661l.008.008a2.714 2.714 0 010 3.638l-.01.01c-.932 1.003-2.471 2.495-4.414 3.742C18.06 18.817 15.652 19.86 13 19.86h-.686a1 1 0 110-2H13c2.131 0 4.163-.843 5.919-1.97 1.747-1.12 3.154-2.479 4.023-3.413a.714.714 0 00-.001-.95c-.397-.429-.92-.968-1.54-1.522a1 1 0 01-.078-1.412zm-4.478 5.63a1 1 0 10-1.726-1.01c-.216.369-.526.675-.899.886a1 1 0 00.986 1.74 4.428 4.428 0 001.64-1.617z"/></svg>