<?xml version="1.0" encoding="utf-8"?><svg width="40" height="40" xmlns="http://www.w3.org/2000/svg" viewBox="0 0 40 40"><path d="M20.03 2.463c-4.756 0-5.352.02-7.22.105-1.863.085-3.136.381-4.25.814a8.582 8.582 0 00-3.1 2.02 8.583 8.583 0 00-2.02 3.1c-.433 1.114-.729 2.387-.814 4.25-.085 1.868-.105 2.464-.105 7.219 0 4.755.02 5.351.105 7.218.085 1.864.381 3.137.814 4.25a8.583 8.583 0 002.02 3.102 8.582 8.582 0 003.1 2.019c1.114.433 2.387.729 4.25.814 1.868.085 2.464.105 7.22.105 4.754 0 5.35-.02 7.218-.105 1.863-.085 3.136-.381 4.25-.814a8.583 8.583 0 003.1-2.02 8.583 8.583 0 002.02-3.1c.433-1.114.729-2.387.814-4.25.085-1.868.105-2.464.105-7.219 0-4.755-.02-5.351-.105-7.219-.085-1.863-.381-3.136-.814-4.25a8.583 8.583 0 00-2.02-3.1 8.583 8.583 0 00-3.1-2.02c-1.114-.433-2.387-.729-4.25-.814-1.868-.085-2.464-.105-7.219-.105zm0 3.154c4.674 0 5.228.018 7.074.103 1.707.077 2.634.363 3.25.602.818.318 1.401.697 2.014 1.31a5.425 5.425 0 011.31 2.013c.24.617.525 1.544.602 3.251.085 1.846.102 2.4.102 7.075 0 4.675-.017 5.229-.102 7.075-.077 1.707-.363 2.634-.602 3.25a5.424 5.424 0 01-1.31 2.014 5.423 5.423 0 01-2.013 1.31c-.617.24-1.544.525-3.251.602-1.846.085-2.4.102-7.075.102-4.675 0-5.229-.017-7.075-.102-1.707-.078-2.634-.363-3.25-.602a5.424 5.424 0 01-2.014-1.31 5.424 5.424 0 01-1.31-2.013c-.24-.617-.524-1.544-.602-3.251-.085-1.846-.102-2.4-.102-7.075 0-4.675.017-5.229.102-7.075.078-1.707.363-2.634.603-3.25.317-.818.697-1.401 1.31-2.014a5.424 5.424 0 012.012-1.31c.617-.24 1.544-.525 3.251-.602 1.846-.085 2.4-.103 7.075-.103z"/><path d="M20.03 25.807a5.836 5.836 0 110-11.672 5.836 5.836 0 010 11.672zm0-14.827a8.99 8.99 0 100 17.981 8.99 8.99 0 000-17.98zM31.476 10.625a2.1 2.1 0 11-4.202 0 2.1 2.1 0 014.202 0z"/></svg>