<?xml version="1.0" encoding="utf-8"?><svg width="24" height="24" xmlns="http://www.w3.org/2000/svg" viewBox="0 0 24 24"><path fill-rule="evenodd" clip-rule="evenodd" d="M3.115 4.083c.928 8.694 8.07 15.888 16.803 16.842a1.023 1.023 0 001.082-1v-.005c0-2.268-.255-2.96-.622-3.34-.198-.206-.503-.397-1.056-.63-.366-.155-.774-.303-1.272-.483-.28-.1-.587-.212-.93-.34h-.002c-.328-.124-.596-.072-.97.19-.318.224-.587.506-.91.845-.135.142-.28.294-.44.455a1 1 0 01-1.202.162 17 17 0 01-6.375-6.375 1 1 0 01.162-1.201c1.05-1.05 1.222-1.646 1.23-2.196.004-.336-.055-.712-.158-1.246A72.003 72.003 0 008.4 5.49c-.09-.46-.199-1.008-.282-1.634-.038-.262-.236-.563-.757-.823-.522-.26-1.242-.404-1.978-.382-.743.023-1.384.21-1.789.488-.359.246-.515.536-.48.944zm5.139-2.84c.87.434 1.684 1.193 1.846 2.337l.001.01c.074.558.168 1.035.26 1.496l.057.295c.104.532.202 1.09.194 1.653-.014 1.054-.393 1.978-1.277 3.006a15 15 0 004.587 4.602c.317-.327.69-.69 1.077-.961.72-.506 1.682-.855 2.822-.427.288.107.57.209.84.307.536.194 1.027.372 1.439.546.637.269 1.238.587 1.718 1.085.989 1.026 1.182 2.52 1.182 4.726.006 1.749-1.528 3.155-3.27 2.998l-.018-.002C10.035 21.863 2.149 13.92 1.126 4.286l-.002-.016c-.112-1.244.481-2.19 1.34-2.78C3.28.93 4.331.682 5.323.652c.999-.03 2.058.156 2.931.591zM23 19.918v.002h-1l1-.004v.002z"/></svg>