<?xml version="1.0" encoding="utf-8"?><svg width="24" height="24" xmlns="http://www.w3.org/2000/svg" viewBox="0 0 24 24"><path fill-rule="evenodd" clip-rule="evenodd" d="M3.538 7C3.278 7 3 7.231 3 7.6v4.8c0 .369.278.6.538.6h16.924c.26 0 .538-.231.538-.6V7.6c0-.369-.278-.6-.538-.6H3.538zM1 7.6C1 6.201 2.1 5 3.538 5h16.924C21.9 5 23 6.201 23 7.6v4.8c0 1.399-1.1 2.6-2.538 2.6H3.538C2.1 15 1 13.799 1 12.4V7.6z"/><path fill-rule="evenodd" clip-rule="evenodd" d="M4 13a1 1 0 011 1v6.546a.455.455 0 00.455.454h13.09a.455.455 0 00.455-.454V14a1 1 0 112 0v6.546A2.455 2.455 0 0118.546 23H5.455A2.455 2.455 0 013 20.546V14a1 1 0 011-1z"/><path fill-rule="evenodd" clip-rule="evenodd" d="M12 5a1 1 0 011 1v16a1 1 0 11-2 0V6a1 1 0 011-1z"/><path fill-rule="evenodd" clip-rule="evenodd" d="M6.22 1.375a1 1 0 011.405-.156L12 4.72l4.375-3.5a1 1 0 011.25 1.562l-5 4a1 1 0 01-1.25 0l-5-4a1 1 0 01-.156-1.406z"/></svg>