<?xml version="1.0" encoding="utf-8"?><svg width="24" height="24" xmlns="http://www.w3.org/2000/svg" viewBox="0 0 24 24"><g clip-path="url(#nclip0_1040_28311)"><path fill-rule="evenodd" clip-rule="evenodd" d="M14.189 1.648a1 1 0 011.09.216l8.571 8.572a1 1 0 01.033 1.38l-8.571 9.428a1 1 0 01-1.74-.673V16.43H12c-2.296 0-3.637.404-4.998 1.257-1.045.655-2.082 1.556-3.526 2.81-.583.505-1.231 1.068-1.973 1.696a1 1 0 01-1.594-1.08c.161-.484.326-1.013.5-1.573.713-2.285 1.584-5.078 3.025-7.42 1.85-3.005 4.71-5.405 9.423-5.405h.715V2.571a1 1 0 01.617-.923zm1.383 3.338v2.728a1 1 0 01-1 1h-1.715c-3.857 0-6.14 1.887-7.72 4.453-.985 1.602-1.669 3.417-2.252 5.193 1.13-.972 2.1-1.77 3.054-2.368 1.733-1.087 3.458-1.563 6.061-1.563h2.572a1 1 0 011 1v2.556l6.19-6.81-6.19-6.19z"/></g><defs><clipPath id="nclip0_1040_28311"><path d="M0 0h24v24H0z"/></clipPath></defs></svg>