<?xml version="1.0" encoding="utf-8"?><svg width="24" height="24" xmlns="http://www.w3.org/2000/svg" viewBox="0 0 24 24"><g clip-path="url(#beclip0_847_6071)"><path fill-rule="evenodd" clip-rule="evenodd" d="M14.189 1.648a1 1 0 011.09.216l8.57 8.572a1 1 0 01.034 1.38l-8.572 9.428a1 1 0 01-1.74-.673V16.43H12c-2.296 0-3.638.404-4.998 1.257-1.046.655-2.083 1.556-3.526 2.81-.583.505-1.231 1.068-1.973 1.696a1 1 0 01-1.595-1.08C.07 20.628.235 20.1.41 19.54c.713-2.285 1.584-5.078 3.025-7.42 1.85-3.005 4.709-5.405 9.423-5.405h.714V2.571a1 1 0 01.618-.923zm1.382 3.338v2.728a1 1 0 01-1 1h-1.714c-3.857 0-6.14 1.887-7.72 4.453-.985 1.602-1.67 3.417-2.252 5.193 1.129-.972 2.099-1.77 3.054-2.368 1.733-1.087 3.458-1.563 6.06-1.563h2.572a1 1 0 011 1v2.556l6.19-6.81-6.19-6.19z"/></g><defs><clipPath id="beclip0_847_6071"><path d="M0 0h24v24H0z"/></clipPath></defs></svg>