<svg width="0" height="0" style="position:absolute"><symbol viewBox="0 0 24 25" id="again-usage" xmlns="http://www.w3.org/2000/svg"><g clip-path="url(#aclip0_1040_28132)"><path fill-rule="evenodd" clip-rule="evenodd" d="M4.301 3.688a10 10 0 015.556-1.686 1 1 0 110 2 8 8 0 108 8V6.274L15.28 8.852a1 1 0 11-1.415-1.414l4.286-4.286a1 1 0 011.414 0l4.286 4.286a1 1 0 01-1.414 1.414l-2.579-2.578v5.728A10 10 0 114.301 3.687z"/></g><defs><clipPath id="aclip0_1040_28132"><path transform="translate(0 .002)" d="M0 0h24v24H0z"/></clipPath></defs></symbol><symbol viewBox="0 0 14 6" id="arrow--long-usage" xmlns="http://www.w3.org/2000/svg"><path d="M9.74 5.28c.133-.347.28-.667.44-.96.16-.307.34-.593.54-.86H0V1.82h10.72a8.863 8.863 0 01-.52-.84A9.453 9.453 0 019.76 0h1.52c.827.973 1.733 1.713 2.72 2.22v.86c-.987.48-1.893 1.213-2.72 2.2H9.74z"/></symbol><symbol viewBox="0 0 24 24" id="arrow-round--long-usage" xmlns="http://www.w3.org/2000/svg"><g clip-path="url(#cclip0_1110_8468)"><path fill-rule="evenodd" clip-rule="evenodd" d="M-.144 12C-.144 5.294 5.293-.143 12-.143c6.707 0 12.143 5.437 12.143 12.143S18.706 24.143 12 24.143C5.293 24.143-.144 18.706-.144 12zM12 1.857C6.398 1.857 1.856 6.398 1.856 12S6.398 22.143 12 22.143c5.602 0 10.143-4.541 10.143-10.143S17.601 1.857 12 1.857zm-1.864 6.865a1 1 0 010 1.414L9.271 11h7.871a1 1 0 010 2H9.271l.864.864a1 1 0 01-1.414 1.415l-2.572-2.572a1 1 0 010-1.414l2.572-2.571a1 1 0 011.414 0z"/></g><defs><clipPath id="cclip0_1110_8468"><path fill="#fff" d="M0 0h24v24H0z"/></clipPath></defs></symbol><symbol fill="none" viewBox="0 0 48 48" id="arrow-round-usage" xmlns="http://www.w3.org/2000/svg"><path clip-rule="evenodd" d="M21.293 16.293a1 1 0 011.414 0l7 7a1 1 0 010 1.414l-7 7a1 1 0 01-1.414-1.414L27.586 24l-6.293-6.293a1 1 0 010-1.414z"/><rect x="1" y="1" width="46" height="46" rx="23"/></symbol><symbol viewBox="0 0 24 25" id="arrow-usage" xmlns="http://www.w3.org/2000/svg"><path fill-rule="evenodd" clip-rule="evenodd" d="M7.793 20.207a1 1 0 001.414 0l7-7a1 1 0 000-1.414l-7-7a1 1 0 00-1.414 1.414l6.293 6.293-6.293 6.293a1 1 0 000 1.414z"/></symbol><symbol viewBox="0 0 24 24" id="change-usage" xmlns="http://www.w3.org/2000/svg"><path fill-rule="evenodd" clip-rule="evenodd" d="M18.789 3a.56.56 0 00-.396.164l-.004.004-8.678 8.61-.494 2.988 2.962-.53 8.658-8.652a.547.547 0 00.121-.596.547.547 0 00-.12-.178l-.003-.003-1.651-1.643A.556.556 0 0018.789 3zm-.981-1.805a2.56 2.56 0 012.791.555l.002.002 1.642 1.635.002.001a2.547 2.547 0 01.558 2.79c-.13.31-.32.591-.558.827l-8.875 8.867a1 1 0 01-.53.277l-4.664.835a1 1 0 01-1.163-1.147l.778-4.705a1 1 0 01.282-.547l8.906-8.835c.237-.238.519-.426.829-.555z"/><path fill-rule="evenodd" clip-rule="evenodd" d="M3.565 5A.565.565 0 003 5.565v14.87a.565.565 0 00.565.565h14.87a.565.565 0 00.565-.565v-4.696a1 1 0 112 0v4.696A2.566 2.566 0 0118.435 23H3.565A2.566 2.566 0 011 20.435V5.565A2.565 2.565 0 013.565 3h4.696a1 1 0 010 2H3.565z"/></symbol><symbol viewBox="0 0 24 24" id="close-usage" xmlns="http://www.w3.org/2000/svg"><path fill-rule="evenodd" clip-rule="evenodd" d="M19.707 4.293a1 1 0 010 1.414l-14 14a1 1 0 01-1.414-1.414l14-14a1 1 0 011.414 0z"/><path fill-rule="evenodd" clip-rule="evenodd" d="M4.293 4.293a1 1 0 011.414 0l14 14a1 1 0 01-1.414 1.414l-14-14a1 1 0 010-1.414z"/></symbol><symbol viewBox="0 0 40 40" id="facebook-usage" xmlns="http://www.w3.org/2000/svg"><path fill-rule="evenodd" clip-rule="evenodd" d="M20 39.453c10.744 0 19.453-8.71 19.453-19.453C39.453 9.256 30.743.547 20 .547 9.256.547.547 9.257.547 20c0 9.588 6.936 17.556 16.065 19.159v-13.21h-4.95v-5.49h4.95v-4.185c0-4.76 2.908-7.39 7.362-7.39 2.132 0 4.363.37 4.363.37v4.675h-2.46c-2.42 0-3.174 1.466-3.174 2.968v3.561h5.405l-.864 5.491h-4.541v13.274a20.08 20.08 0 01-2.88.23H20z"/></symbol><symbol viewBox="0 0 26 25" id="hide-usage" xmlns="http://www.w3.org/2000/svg"><path fill-rule="evenodd" clip-rule="evenodd" d="M23.136 3.282a1 1 0 00-1.415-1.415l-3.539 3.54a12.246 12.246 0 00-5.161-1.261h-.02c-2.653 0-5.061 1.043-7 2.286-1.943 1.247-3.481 2.739-4.413 3.742l-.01.01a2.714 2.714 0 000 3.638l.003.004a22.256 22.256 0 004.44 3.741l-3.157 3.157A1 1 0 004.28 22.14l4.046-4.047a.94.94 0 00.032-.032l2.932-2.932.003-.003 4.83-4.83.003-.003 2.932-2.931.031-.032 4.048-4.047zm-9.282 6.453l-3.122 3.122a2.427 2.427 0 01-.16-.856 2.429 2.429 0 012.426-2.427c.296.002.585.057.856.16zm-.85-2.16c.833.003 1.64.24 2.334.676l1.334-1.334a10.245 10.245 0 00-3.682-.771c-2.127.003-4.155.845-5.909 1.97-1.746 1.12-3.154 2.479-4.022 3.413a.714.714 0 00.002.95 20.255 20.255 0 004.412 3.637l1.775-1.775a4.428 4.428 0 01-.676-2.334v-.004A4.429 4.429 0 0113 7.574h.004zm8.32 1.018a1 1 0 011.411-.078c.683.61 1.255 1.2 1.68 1.661l.008.008a2.714 2.714 0 010 3.638l-.01.01c-.932 1.003-2.471 2.495-4.414 3.742C18.06 18.817 15.652 19.86 13 19.86h-.686a1 1 0 110-2H13c2.131 0 4.163-.843 5.919-1.97 1.747-1.12 3.154-2.479 4.023-3.413a.714.714 0 00-.001-.95c-.397-.429-.92-.968-1.54-1.522a1 1 0 01-.078-1.412zm-4.478 5.63a1 1 0 10-1.726-1.01c-.216.369-.526.675-.899.886a1 1 0 00.986 1.74 4.428 4.428 0 001.64-1.617z"/></symbol><symbol viewBox="0 0 40 40" id="instagram-usage" xmlns="http://www.w3.org/2000/svg"><path d="M20.03 2.463c-4.756 0-5.352.02-7.22.105-1.863.085-3.136.381-4.25.814a8.582 8.582 0 00-3.1 2.02 8.583 8.583 0 00-2.02 3.1c-.433 1.114-.729 2.387-.814 4.25-.085 1.868-.105 2.464-.105 7.219 0 4.755.02 5.351.105 7.218.085 1.864.381 3.137.814 4.25a8.583 8.583 0 002.02 3.102 8.582 8.582 0 003.1 2.019c1.114.433 2.387.729 4.25.814 1.868.085 2.464.105 7.22.105 4.754 0 5.35-.02 7.218-.105 1.863-.085 3.136-.381 4.25-.814a8.583 8.583 0 003.1-2.02 8.583 8.583 0 002.02-3.1c.433-1.114.729-2.387.814-4.25.085-1.868.105-2.464.105-7.219 0-4.755-.02-5.351-.105-7.219-.085-1.863-.381-3.136-.814-4.25a8.583 8.583 0 00-2.02-3.1 8.583 8.583 0 00-3.1-2.02c-1.114-.433-2.387-.729-4.25-.814-1.868-.085-2.464-.105-7.219-.105zm0 3.154c4.674 0 5.228.018 7.074.103 1.707.077 2.634.363 3.25.602.818.318 1.401.697 2.014 1.31a5.425 5.425 0 011.31 2.013c.24.617.525 1.544.602 3.251.085 1.846.102 2.4.102 7.075 0 4.675-.017 5.229-.102 7.075-.077 1.707-.363 2.634-.602 3.25a5.424 5.424 0 01-1.31 2.014 5.423 5.423 0 01-2.013 1.31c-.617.24-1.544.525-3.251.602-1.846.085-2.4.102-7.075.102-4.675 0-5.229-.017-7.075-.102-1.707-.078-2.634-.363-3.25-.602a5.424 5.424 0 01-2.014-1.31 5.424 5.424 0 01-1.31-2.013c-.24-.617-.524-1.544-.602-3.251-.085-1.846-.102-2.4-.102-7.075 0-4.675.017-5.229.102-7.075.078-1.707.363-2.634.603-3.25.317-.818.697-1.401 1.31-2.014a5.424 5.424 0 012.012-1.31c.617-.24 1.544-.525 3.251-.602 1.846-.085 2.4-.103 7.075-.103z"/><path d="M20.03 25.807a5.836 5.836 0 110-11.672 5.836 5.836 0 010 11.672zm0-14.827a8.99 8.99 0 100 17.981 8.99 8.99 0 000-17.98zM31.476 10.625a2.1 2.1 0 11-4.202 0 2.1 2.1 0 014.202 0z"/></symbol><symbol viewBox="0 0 20 20" id="ok-usage" xmlns="http://www.w3.org/2000/svg"><path fill-rule="evenodd" clip-rule="evenodd" d="M14.316 6.934a.8.8 0 010 1.132l-5 5a.8.8 0 01-1.066.059l-2.5-2a.8.8 0 111-1.25l1.94 1.553 4.494-4.494a.8.8 0 011.132 0z"/></symbol><symbol viewBox="0 0 24 24" id="prize-usage" xmlns="http://www.w3.org/2000/svg"><path fill-rule="evenodd" clip-rule="evenodd" d="M3.538 7C3.278 7 3 7.23 3 7.6v4.8c0 .369.278.6.538.6h16.924c.26 0 .538-.231.538-.6V7.6c0-.369-.278-.6-.538-.6H3.538zM1 7.6C1 6.2 2.1 5 3.538 5h16.924C21.9 5 23 6.2 23 7.6v4.8c0 1.399-1.1 2.6-2.538 2.6H3.538C2.1 15 1 13.799 1 12.4V7.6z"/><path fill-rule="evenodd" clip-rule="evenodd" d="M4 13a1 1 0 011 1v6.545a.454.454 0 00.455.455h13.09a.455.455 0 00.455-.455V14a1 1 0 112 0v6.545A2.455 2.455 0 0118.546 23H5.455A2.455 2.455 0 013 20.545V14a1 1 0 011-1z"/><path fill-rule="evenodd" clip-rule="evenodd" d="M12 5a1 1 0 011 1v16a1 1 0 11-2 0V6a1 1 0 011-1z"/><path fill-rule="evenodd" clip-rule="evenodd" d="M6.22 1.375a1 1 0 011.405-.156L12 4.72l4.375-3.5a1 1 0 011.25 1.562l-5 4a1 1 0 01-1.25 0l-5-4a1 1 0 01-.156-1.406z"/></symbol><symbol viewBox="0 0 24 24" id="question-usage" xmlns="http://www.w3.org/2000/svg"><path fill-rule="evenodd" clip-rule="evenodd" d="M3.538 3A.538.538 0 003 3.538v16.924c0 .297.241.538.538.538h16.924a.539.539 0 00.538-.538V3.538A.538.538 0 0020.462 3H3.538zM1 3.538A2.538 2.538 0 013.538 1h16.924A2.538 2.538 0 0123 3.538v16.924A2.538 2.538 0 0120.462 23H3.538A2.538 2.538 0 011 20.462V3.538z"/><path fill-rule="evenodd" clip-rule="evenodd" d="M12.306 7.887a1.571 1.571 0 00-1.878 1.542 1 1 0 11-2 0A3.571 3.571 0 1113 12.857v.857a1 1 0 01-2 0V12a1 1 0 011-1 1.571 1.571 0 00.306-3.113z"/><path d="M12 16.286a1.286 1.286 0 101.285 1.285A1.302 1.302 0 0012 16.287z"/></symbol><symbol viewBox="0 0 24 24" id="repost-usage" xmlns="http://www.w3.org/2000/svg"><g clip-path="url(#nclip0_1040_28311)"><path fill-rule="evenodd" clip-rule="evenodd" d="M14.189 1.648a1 1 0 011.09.216l8.571 8.572a1 1 0 01.033 1.38l-8.571 9.428a1 1 0 01-1.74-.673V16.43H12c-2.296 0-3.637.404-4.998 1.257-1.045.655-2.082 1.556-3.526 2.81-.583.505-1.231 1.068-1.973 1.696a1 1 0 01-1.594-1.08c.161-.484.326-1.013.5-1.573.713-2.285 1.584-5.078 3.025-7.42 1.85-3.005 4.71-5.405 9.423-5.405h.715V2.571a1 1 0 01.617-.923zm1.383 3.338v2.728a1 1 0 01-1 1h-1.715c-3.857 0-6.14 1.887-7.72 4.453-.985 1.602-1.669 3.417-2.252 5.193 1.13-.972 2.1-1.77 3.054-2.368 1.733-1.087 3.458-1.563 6.061-1.563h2.572a1 1 0 011 1v2.556l6.19-6.81-6.19-6.19z"/></g><defs><clipPath id="nclip0_1040_28311"><path d="M0 0h24v24H0z"/></clipPath></defs></symbol><symbol viewBox="0 0 24 24" id="search-usage" xmlns="http://www.w3.org/2000/svg"><path fill-rule="evenodd" clip-rule="evenodd" d="M4 11a7 7 0 1112.041 4.856.998.998 0 00-.185.185A7 7 0 014 11zm12.618 7.032a9 9 0 111.414-1.414l3.675 3.675a1 1 0 01-1.414 1.414l-3.675-3.675z"/></symbol><symbol viewBox="0 0 26 24" id="show-usage" xmlns="http://www.w3.org/2000/svg"><path fill-rule="evenodd" clip-rule="evenodd" d="M2.878 12.001c0-.175.065-.344.18-.474.869-.934 2.276-2.293 4.023-3.414C8.838 6.987 10.87 6.143 13 6.143s4.163.844 5.919 1.97c1.747 1.121 3.154 2.48 4.023 3.414a.714.714 0 010 .948c-.869.934-2.276 2.293-4.023 3.414-1.756 1.126-3.788 1.97-5.919 1.97-2.13 0-4.162-.844-5.919-1.97-1.747-1.121-3.154-2.48-4.022-3.414a.714.714 0 01-.18-.474zM13 4.144c-2.652 0-5.06 1.043-6.998 2.286C4.058 7.677 2.52 9.17 1.587 10.172l-.01.01a2.714 2.714 0 000 3.638l.01.01c.933 1.003 2.471 2.495 4.415 3.742 1.938 1.243 4.346 2.286 6.998 2.286s5.06-1.043 6.999-2.286c1.943-1.247 3.482-2.739 4.414-3.742l.01-.01a2.714 2.714 0 000-3.638l-.01-.01c-.933-1.003-2.471-2.495-4.414-3.742C18.06 5.187 15.652 4.144 13 4.144zM10.572 12a2.429 2.429 0 114.857 0 2.429 2.429 0 01-4.857 0zM13 7.572a4.429 4.429 0 100 8.858 4.429 4.429 0 000-8.858z"/></symbol><symbol viewBox="0 0 40 40" id="vk-usage" xmlns="http://www.w3.org/2000/svg"><path d="M38.974 9.736c.175-.864-.21-1.349-1.117-1.349h-4.572c-1.047 0-1.431.45-1.745 1.107 0 0-2.424 5.476-5.432 8.766-.966 1.063-1.135 1.383-1.668 1.383-.43 0-.628-.355-.628-1.314V9.922c0-1.176-.138-1.535-1.117-1.535h-7.278c-.562 0-.937.303-.937.743 0 1.107 1.71 1.357 1.71 4.358v6.193c0 1.245-.07 1.73-.663 1.73-1.57 0-5.65-5.33-7.743-11.42-.42-1.245-.871-1.604-2.062-1.604h-4.56C.498 8.387 0 8.85 0 9.507c0 1.21 1.43 6.815 7.05 14.322 3.77 5.05 9.048 7.784 13.515 7.784 2.723 0 3.247-.468 3.247-1.61v-3.875c0-.968.383-1.384.942-1.384.628 0 1.555.22 4.147 2.752 3.07 2.906 3.28 4.117 4.956 4.117h5.13c.524 0 1.013-.242 1.013-1.107 0-1.142-1.501-3.183-3.805-5.604-.942-1.246-2.478-2.595-2.967-3.218-.698-.726-.488-1.142 0-1.902 0 0 5.222-7.624 5.746-10.046z"/></symbol><symbol viewBox="0 0 40 40" id="youtube-usage" xmlns="http://www.w3.org/2000/svg"><path fill-rule="evenodd" clip-rule="evenodd" d="M5.635 6.681C2.805 6.816.533 8.948.349 11.669.173 14.276 0 17.483 0 20c0 2.517.173 5.724.35 8.331.183 2.72 2.456 4.853 5.285 4.988 4.097.195 9.953.431 14.365.431 4.412 0 10.268-.236 14.365-.431 2.83-.135 5.102-2.267 5.286-4.988.176-2.607.349-5.814.349-8.331 0-2.517-.173-5.724-.35-8.331-.183-2.72-2.456-4.853-5.285-4.988C30.268 6.486 24.412 6.25 20 6.25c-4.412 0-10.268.236-14.365.431zM27.5 20l-11.25 6.25v-12.5L27.5 20z"/></symbol></svg>