<svg width="0" height="0" style="position:absolute"><symbol viewBox="0 0 24 24" id="add-usage" xmlns="http://www.w3.org/2000/svg"><path fill-rule="evenodd" clip-rule="evenodd" d="M5 4a1 1 0 00-1 1v14a1 1 0 001 1h14a1 1 0 001-1V5a1 1 0 00-1-1H5zM2 5a3 3 0 013-3h14a3 3 0 013 3v14a3 3 0 01-3 3H5a3 3 0 01-3-3V5z"/><path fill-rule="evenodd" clip-rule="evenodd" d="M12 7a1 1 0 011 1v8a1 1 0 11-2 0V8a1 1 0 011-1z"/><path fill-rule="evenodd" clip-rule="evenodd" d="M7 12a1 1 0 011-1h8a1 1 0 110 2H8a1 1 0 01-1-1z"/></symbol><symbol viewBox="0 0 24 24" id="again-usage" xmlns="http://www.w3.org/2000/svg"><g clip-path="url(#abclip0_847_8562)"><path fill-rule="evenodd" clip-rule="evenodd" d="M4.301 3.686A10 10 0 019.857 2a1 1 0 010 2 8 8 0 108 8V6.272L15.278 8.85a1 1 0 11-1.414-1.414L18.15 3.15a1 1 0 011.414 0l4.286 4.286a1 1 0 01-1.415 1.414l-2.578-2.578V12A9.999 9.999 0 114.3 3.686z"/></g><defs><clipPath id="abclip0_847_8562"><path d="M0 0h24v24H0z"/></clipPath></defs></symbol><symbol viewBox="0 0 24 24" id="alert-usage" xmlns="http://www.w3.org/2000/svg"><path fill-rule="evenodd" clip-rule="evenodd" d="M12 3a9 9 0 100 18 9 9 0 000-18zM1 12C1 5.925 5.925 1 12 1s11 4.925 11 11-4.925 11-11 11S1 18.075 1 12z"/><path fill-rule="evenodd" clip-rule="evenodd" d="M12 7a1 1 0 011 1v4a1 1 0 11-2 0V8a1 1 0 011-1zM11 16a1 1 0 011-1h.01a1 1 0 110 2H12a1 1 0 01-1-1z"/></symbol><symbol viewBox="0 0 16 7" id="angle-usage" xmlns="http://www.w3.org/2000/svg"><path d="M16 2.236A2 2 0 0013.106.447L0 7h16V2.236z"/></symbol><symbol viewBox="0 0 14 6" id="arrow--long-usage" xmlns="http://www.w3.org/2000/svg"><path d="M9.74 5.28c.133-.347.28-.667.44-.96.16-.307.34-.593.54-.86H0V1.82h10.72a8.863 8.863 0 01-.52-.84A9.453 9.453 0 019.76 0h1.52c.827.973 1.733 1.713 2.72 2.22v.86c-.987.48-1.893 1.213-2.72 2.2H9.74z"/></symbol><symbol viewBox="0 0 24 24" id="arrow-down-usage" xmlns="http://www.w3.org/2000/svg"><path fill-rule="evenodd" clip-rule="evenodd" d="M19.707 7.793a1 1 0 010 1.414l-7 7a1 1 0 01-1.414 0l-7-7a1 1 0 011.414-1.414L12 14.086l6.293-6.293a1 1 0 011.414 0z"/></symbol><symbol viewBox="0 0 24 24" id="arrow-left-usage" xmlns="http://www.w3.org/2000/svg"><path fill-rule="evenodd" clip-rule="evenodd" d="M14.707 4.293a1 1 0 00-1.414 0l-7 7a1 1 0 000 1.414l7 7a1 1 0 001.414-1.414L8.414 12l6.293-6.293a1 1 0 000-1.414z"/></symbol><symbol viewBox="0 0 24 24" id="arrow-right-usage" xmlns="http://www.w3.org/2000/svg"><path fill-rule="evenodd" clip-rule="evenodd" d="M9.293 4.293a1 1 0 011.414 0l7 7a1 1 0 010 1.414l-7 7a1 1 0 01-1.414-1.414L15.586 12 9.293 5.707a1 1 0 010-1.414z"/></symbol><symbol viewBox="0 0 24 24" id="arrow-round--long-usage" xmlns="http://www.w3.org/2000/svg"><g clip-path="url(#aiclip0_847_6072)"><path fill-rule="evenodd" clip-rule="evenodd" d="M-.143 12C-.143 5.294 5.293-.143 12-.143c6.706 0 12.143 5.437 12.143 12.143S18.706 24.143 12 24.143C5.293 24.143-.143 18.706-.143 12zM12 1.857C6.398 1.857 1.857 6.398 1.857 12S6.398 22.143 12 22.143 22.143 17.602 22.143 12 17.602 1.857 12 1.857zm-1.864 6.865a1 1 0 010 1.414L9.27 11h7.872a1 1 0 010 2H9.27l.864.864a1 1 0 01-1.414 1.415L6.15 12.707a1 1 0 010-1.414L8.72 8.722a1 1 0 011.415 0z"/></g><defs><clipPath id="aiclip0_847_6072"><path d="M0 0h24v24H0z"/></clipPath></defs></symbol><symbol fill="none" viewBox="0 0 48 48" id="arrow-round-usage" xmlns="http://www.w3.org/2000/svg"><path clip-rule="evenodd" d="M21.293 16.293a1 1 0 011.414 0l7 7a1 1 0 010 1.414l-7 7a1 1 0 01-1.414-1.414L27.586 24l-6.293-6.293a1 1 0 010-1.414z"/><rect x="1" y="1" width="46" height="46" rx="23"/></symbol><symbol viewBox="0 0 24 24" id="arrow-up-usage" xmlns="http://www.w3.org/2000/svg"><path fill-rule="evenodd" clip-rule="evenodd" d="M19.707 16.207a1 1 0 000-1.414l-7-7a1 1 0 00-1.414 0l-7 7a1 1 0 101.414 1.414L12 9.914l6.293 6.293a1 1 0 001.414 0z"/></symbol><symbol viewBox="0 0 24 25" id="arrow-usage" xmlns="http://www.w3.org/2000/svg"><path fill-rule="evenodd" clip-rule="evenodd" d="M7.793 20.207a1 1 0 001.414 0l7-7a1 1 0 000-1.414l-7-7a1 1 0 00-1.414 1.414l6.293 6.293-6.293 6.293a1 1 0 000 1.414z"/></symbol><symbol viewBox="0 0 24 24" id="bell-usage" xmlns="http://www.w3.org/2000/svg"><path fill-rule="evenodd" clip-rule="evenodd" d="M7.05 3.05A7 7 0 0119 8c0 3.353.717 5.435 1.378 6.646.332.608.655 1.007.88 1.244a3.026 3.026 0 00.306.284l.002.002A1 1 0 0121 18H3a1 1 0 01-.563-1.826l.052-.042c.053-.044.141-.123.254-.242.224-.237.547-.636.88-1.244C4.282 13.435 5 11.353 5 8a7 7 0 012.05-4.95zM5.15 16h13.7a9.421 9.421 0 01-.228-.396C17.783 14.065 17 11.647 17 8A5 5 0 007 8c0 3.647-.783 6.065-1.622 7.604-.076.14-.153.271-.229.396zM9.768 20.135a1 1 0 011.367.363 1 1 0 001.73 0 1 1 0 111.73 1.004 3 3 0 01-5.19 0 1 1 0 01.363-1.367z"/></symbol><symbol viewBox="0 0 24 24" id="calendar-usage" xmlns="http://www.w3.org/2000/svg"><path fill-rule="evenodd" clip-rule="evenodd" d="M4.75 4.75v14.5h14.5V4.75H4.75zm-2-.25c0-.966.784-1.75 1.75-1.75h15c.966 0 1.75.784 1.75 1.75v15a1.75 1.75 0 01-1.75 1.75h-15a1.75 1.75 0 01-1.75-1.75v-15z"/><path fill-rule="evenodd" clip-rule="evenodd" d="M16.5 1.25a1 1 0 011 1v3a1 1 0 11-2 0v-3a1 1 0 011-1zM7.5 1.25a1 1 0 011 1v3a1 1 0 01-2 0v-3a1 1 0 011-1zM2.75 8.25a1 1 0 011-1h16.5a1 1 0 110 2H3.75a1 1 0 01-1-1z"/></symbol><symbol viewBox="0 0 24 24" id="change-usage" xmlns="http://www.w3.org/2000/svg"><path fill-rule="evenodd" clip-rule="evenodd" d="M18.789 3a.56.56 0 00-.396.164l-.004.004-8.678 8.61-.494 2.988 2.962-.53 8.658-8.652a.547.547 0 00.121-.596.548.548 0 00-.12-.178l-.003-.003-1.651-1.643A.555.555 0 0018.789 3zm-.981-1.805a2.56 2.56 0 012.791.555l.002.002 1.642 1.635.002.001a2.547 2.547 0 01.558 2.79c-.13.31-.32.591-.558.827l-8.875 8.867a1 1 0 01-.53.277l-4.664.835a1 1 0 01-1.163-1.147l.778-4.705a1 1 0 01.282-.547l8.906-8.835c.237-.238.519-.426.829-.555z"/><path fill-rule="evenodd" clip-rule="evenodd" d="M3.565 5A.565.565 0 003 5.565v14.87a.565.565 0 00.565.565h14.87a.565.565 0 00.565-.565v-4.696a1 1 0 112 0v4.696A2.566 2.566 0 0118.435 23H3.565A2.566 2.566 0 011 20.435V5.565A2.565 2.565 0 013.565 3h4.696a1 1 0 010 2H3.565z"/></symbol><symbol viewBox="0 0 24 24" id="clock-usage" xmlns="http://www.w3.org/2000/svg"><path fill-rule="evenodd" clip-rule="evenodd" d="M12 3a9 9 0 100 18 9 9 0 000-18zM1 12C1 5.925 5.925 1 12 1s11 4.925 11 11-4.925 11-11 11S1 18.075 1 12z"/><path fill-rule="evenodd" clip-rule="evenodd" d="M12 5a1 1 0 011 1v5.382l3.447 1.724a1 1 0 11-.894 1.788l-4-2A1 1 0 0111 12V6a1 1 0 011-1z"/></symbol><symbol viewBox="0 0 24 24" id="close-usage" xmlns="http://www.w3.org/2000/svg"><path fill-rule="evenodd" clip-rule="evenodd" d="M19.707 4.293a1 1 0 010 1.414l-14 14a1 1 0 01-1.414-1.414l14-14a1 1 0 011.414 0z"/><path fill-rule="evenodd" clip-rule="evenodd" d="M4.293 4.293a1 1 0 011.414 0l14 14a1 1 0 01-1.414 1.414l-14-14a1 1 0 010-1.414z"/></symbol><symbol viewBox="0 0 24 24" id="download-usage" xmlns="http://www.w3.org/2000/svg"><path fill-rule="evenodd" clip-rule="evenodd" d="M5.5 4v16h13V8.664L13.836 4H5.5zM4.013 2.513A1.75 1.75 0 015.25 2h9a1 1 0 01.707.293l5.25 5.25a1 1 0 01.293.707v12A1.75 1.75 0 0118.75 22H5.25a1.75 1.75 0 01-1.75-1.75V3.75c0-.464.184-.91.513-1.237z"/><path fill-rule="evenodd" clip-rule="evenodd" d="M14.25 2a1 1 0 011 1v4.25h4.25a1 1 0 110 2h-5.25a1 1 0 01-1-1V3a1 1 0 011-1zM8.668 13.918a1 1 0 011.414 0L12 15.836l1.918-1.918a1 1 0 011.414 1.414l-2.625 2.625a1 1 0 01-1.414 0l-2.625-2.625a1 1 0 010-1.414z"/><path fill-rule="evenodd" clip-rule="evenodd" d="M12 10.25a1 1 0 011 1v6a1 1 0 11-2 0v-6a1 1 0 011-1z"/></symbol><symbol viewBox="0 0 40 40" id="facebook-usage" xmlns="http://www.w3.org/2000/svg"><path fill-rule="evenodd" clip-rule="evenodd" d="M20 39.453c10.744 0 19.453-8.71 19.453-19.453C39.453 9.256 30.743.547 20 .547 9.256.547.547 9.257.547 20c0 9.588 6.936 17.556 16.065 19.159v-13.21h-4.95v-5.49h4.95v-4.185c0-4.76 2.908-7.39 7.362-7.39 2.132 0 4.363.37 4.363.37v4.675h-2.46c-2.42 0-3.174 1.466-3.174 2.968v3.561h5.405l-.864 5.491h-4.541v13.274a20.08 20.08 0 01-2.88.23H20z"/></symbol><symbol viewBox="0 0 24 24" id="frame-usage" xmlns="http://www.w3.org/2000/svg"><path fill-rule="evenodd" clip-rule="evenodd" d="M1.5 3.5a2 2 0 012-2h3.375a1 1 0 010 2H3.5v4.25a1 1 0 01-2 0V3.5zm14.625-1a1 1 0 011-1H20.5a2 2 0 012 2v4.25a1 1 0 11-2 0V3.5h-3.375a1 1 0 01-1-1zM7.8 5.75a1 1 0 011 1v10.5a1 1 0 11-2 0V6.75a1 1 0 011-1zm4.2 0a1 1 0 011 1v10.5a1 1 0 11-2 0V6.75a1 1 0 011-1zm4.2 0a1 1 0 011 1v10.5a1 1 0 11-2 0V6.75a1 1 0 011-1zm-13.7 9.5a1 1 0 011 1v4.25h3.375a1 1 0 110 2H3.5a2 2 0 01-2-2v-4.25a1 1 0 011-1zm19 0a1 1 0 011 1v4.25a2 2 0 01-2 2h-3.375a1 1 0 110-2H20.5v-4.25a1 1 0 011-1z"/></symbol><symbol viewBox="0 0 24 24" id="hide-usage" xmlns="http://www.w3.org/2000/svg"><g clip-path="url(#auclip0_847_8731)" fill-rule="evenodd" clip-rule="evenodd"><path d="M20.323 8.59a1 1 0 011.412-.078c.683.61 1.254 1.2 1.68 1.661l.007.008a2.714 2.714 0 010 3.638l-.01.01c-.932 1.003-2.47 2.495-4.413 3.742-1.939 1.243-4.347 2.286-7 2.286h-.685a1 1 0 110-2H12c2.13 0 4.162-.843 5.919-1.97 1.747-1.12 3.154-2.479 4.022-3.413a.715.715 0 000-.95c-.397-.429-.921-.968-1.54-1.522a1 1 0 01-.078-1.412zM2.059 11.526a.714.714 0 00.002.95 20.257 20.257 0 005.062 4.017 1 1 0 01-.977 1.745A22.257 22.257 0 01.58 13.823l-.003-.005a2.714 2.714 0 010-3.637l.01-.01c.932-1.003 2.47-2.495 4.414-3.742C6.94 5.186 9.348 4.143 12 4.143h.021c2.053.043 4.062.601 5.843 1.624a1 1 0 01-.996 1.734 10.246 10.246 0 00-4.878-1.358c-2.127.003-4.155.845-5.909 1.97-1.746 1.12-3.154 2.479-4.022 3.413z"/><path d="M22.136 1.864a1 1 0 010 1.415L3.279 22.136a1 1 0 01-1.415-1.415L20.722 1.864a1 1 0 011.414 0z"/><path d="M11.998 9.571a2.429 2.429 0 00-2.426 2.427c.003.642.26 1.257.716 1.71a1 1 0 01-1.41 1.418 4.429 4.429 0 01-1.306-3.122V12A4.429 4.429 0 0112 7.571h.004a4.429 4.429 0 013.123 1.307 1 1 0 01-1.419 1.41 2.429 2.429 0 00-1.71-.717zM15.488 12.851a1 1 0 01.358 1.368 4.428 4.428 0 01-1.639 1.617 1 1 0 11-.986-1.74 2.43 2.43 0 00.899-.887 1 1 0 011.368-.358z"/></g><defs><clipPath id="auclip0_847_8731"><path d="M0 0h24v24H0z"/></clipPath></defs></symbol><symbol viewBox="0 0 40 40" id="instagram-usage" xmlns="http://www.w3.org/2000/svg"><path d="M20.03 2.463c-4.756 0-5.352.02-7.22.105-1.863.085-3.136.381-4.25.814a8.582 8.582 0 00-3.1 2.02 8.583 8.583 0 00-2.02 3.1c-.433 1.114-.729 2.387-.814 4.25-.085 1.868-.105 2.464-.105 7.219 0 4.755.02 5.351.105 7.218.085 1.864.381 3.137.814 4.25a8.583 8.583 0 002.02 3.102 8.582 8.582 0 003.1 2.019c1.114.433 2.387.729 4.25.814 1.868.085 2.464.105 7.22.105 4.754 0 5.35-.02 7.218-.105 1.863-.085 3.136-.381 4.25-.814a8.583 8.583 0 003.1-2.02 8.583 8.583 0 002.02-3.1c.433-1.114.729-2.387.814-4.25.085-1.868.105-2.464.105-7.219 0-4.755-.02-5.351-.105-7.219-.085-1.863-.381-3.136-.814-4.25a8.583 8.583 0 00-2.02-3.1 8.583 8.583 0 00-3.1-2.02c-1.114-.433-2.387-.729-4.25-.814-1.868-.085-2.464-.105-7.219-.105zm0 3.154c4.674 0 5.228.018 7.074.103 1.707.077 2.634.363 3.25.602.818.318 1.401.697 2.014 1.31a5.425 5.425 0 011.31 2.013c.24.617.525 1.544.602 3.251.085 1.846.102 2.4.102 7.075 0 4.675-.017 5.229-.102 7.075-.077 1.707-.363 2.634-.602 3.25a5.424 5.424 0 01-1.31 2.014 5.423 5.423 0 01-2.013 1.31c-.617.24-1.544.525-3.251.602-1.846.085-2.4.102-7.075.102-4.675 0-5.229-.017-7.075-.102-1.707-.078-2.634-.363-3.25-.602a5.424 5.424 0 01-2.014-1.31 5.424 5.424 0 01-1.31-2.013c-.24-.617-.524-1.544-.602-3.251-.085-1.846-.102-2.4-.102-7.075 0-4.675.017-5.229.102-7.075.078-1.707.363-2.634.603-3.25.317-.818.697-1.401 1.31-2.014a5.424 5.424 0 012.012-1.31c.617-.24 1.544-.525 3.251-.602 1.846-.085 2.4-.103 7.075-.103z"/><path d="M20.03 25.807a5.836 5.836 0 110-11.672 5.836 5.836 0 010 11.672zm0-14.827a8.99 8.99 0 100 17.981 8.99 8.99 0 000-17.98zM31.476 10.625a2.1 2.1 0 11-4.202 0 2.1 2.1 0 014.202 0z"/></symbol><symbol viewBox="0 0 24 24" id="more-usage" xmlns="http://www.w3.org/2000/svg"><path d="M12 12.667a.667.667 0 100-1.333.667.667 0 000 1.333z"/><path fill-rule="evenodd" clip-rule="evenodd" d="M12 12.334a.333.333 0 100-.667.333.333 0 000 .667zM10.333 12a1.667 1.667 0 113.334 0 1.667 1.667 0 01-3.334 0z"/><path d="M16.667 12.667a.667.667 0 100-1.333.667.667 0 000 1.333z"/><path fill-rule="evenodd" clip-rule="evenodd" d="M16.667 12.334a.333.333 0 100-.667.333.333 0 000 .667zM15 12a1.667 1.667 0 113.333 0A1.667 1.667 0 0115 12z"/><path d="M7.333 12.667a.667.667 0 100-1.333.667.667 0 000 1.333z"/><path fill-rule="evenodd" clip-rule="evenodd" d="M7.333 12.334a.333.333 0 100-.667.333.333 0 000 .667zM5.667 12A1.667 1.667 0 119 12a1.667 1.667 0 01-3.333 0z"/></symbol><symbol viewBox="0 0 20 20" id="ok-usage" xmlns="http://www.w3.org/2000/svg"><path fill-rule="evenodd" clip-rule="evenodd" d="M14.316 6.934a.8.8 0 010 1.132l-5 5a.8.8 0 01-1.066.059l-2.5-2a.8.8 0 111-1.25l1.94 1.553 4.494-4.494a.8.8 0 011.132 0z"/></symbol><symbol viewBox="0 0 24 24" id="paperclip-usage" xmlns="http://www.w3.org/2000/svg"><path fill-rule="evenodd" clip-rule="evenodd" d="M15.78 2.388c-.796 0-1.56.316-2.123.88l-9.19 9.19a5.004 5.004 0 007.076 7.075l9.19-9.19a1 1 0 011.414 1.414l-9.19 9.19a7.003 7.003 0 11-9.904-9.904l9.19-9.19a5.002 5.002 0 017.074 7.074l-9.2 9.19a3.001 3.001 0 11-4.244-4.244l8.49-8.48a1 1 0 111.414 1.415l-8.49 8.48a1.003 1.003 0 00.708 1.708c.266 0 .52-.105.708-.293l9.2-9.19a3.004 3.004 0 00-2.123-5.125z"/></symbol><symbol viewBox="0 0 24 24" id="phone-usage" xmlns="http://www.w3.org/2000/svg"><path fill-rule="evenodd" clip-rule="evenodd" d="M3.115 4.083c.928 8.694 8.07 15.888 16.803 16.842a1.023 1.023 0 001.082-1v-.005c0-2.268-.255-2.96-.622-3.34-.198-.206-.503-.397-1.056-.63-.366-.155-.774-.303-1.272-.483-.28-.1-.587-.212-.93-.34h-.002c-.328-.124-.596-.072-.97.19-.318.224-.587.506-.91.845-.135.142-.28.294-.44.455a1 1 0 01-1.202.162 17 17 0 01-6.375-6.375 1 1 0 01.162-1.201c1.05-1.05 1.222-1.646 1.23-2.196.004-.336-.055-.712-.158-1.246A72.003 72.003 0 008.4 5.49c-.09-.46-.199-1.008-.282-1.634-.038-.262-.236-.563-.757-.823-.522-.26-1.242-.404-1.978-.382-.743.023-1.384.21-1.789.488-.359.246-.515.536-.48.944zm5.139-2.84c.87.434 1.684 1.193 1.846 2.337l.001.01c.074.558.168 1.035.26 1.496l.057.295c.104.532.202 1.09.194 1.653-.014 1.054-.393 1.978-1.277 3.006a15 15 0 004.587 4.602c.317-.327.69-.69 1.077-.961.72-.506 1.682-.855 2.822-.427.288.107.57.209.84.307.536.194 1.027.372 1.439.546.637.269 1.238.587 1.718 1.085.989 1.026 1.182 2.52 1.182 4.726.006 1.749-1.528 3.155-3.27 2.998l-.018-.002C10.035 21.863 2.149 13.92 1.126 4.286l-.002-.016c-.112-1.244.481-2.19 1.34-2.78C3.28.93 4.331.682 5.323.652c.999-.03 2.058.156 2.931.591zM23 19.918v.002h-1l1-.004v.002z"/></symbol><symbol viewBox="0 0 24 24" id="pin-usage" xmlns="http://www.w3.org/2000/svg"><path fill-rule="evenodd" clip-rule="evenodd" d="M12 2a8 8 0 00-8 8c0 3.098 2.016 6.104 4.226 8.437A29.419 29.419 0 0012 21.773a29.412 29.412 0 003.774-3.335C17.984 16.103 20 13.097 20 10a8 8 0 00-8-8zm0 21l-.555.832-.003-.002-.007-.005-.023-.015a28.518 28.518 0 01-1.441-1.074 31.428 31.428 0 01-3.197-2.923C4.484 17.396 2 13.902 2 10a10 10 0 0120 0c0 3.902-2.484 7.396-4.774 9.813a31.433 31.433 0 01-4.254 3.726 18.887 18.887 0 01-.384.27l-.023.016-.007.005-.002.001s-.001.001-.556-.831zm0 0l.555.832a1 1 0 01-1.11 0L12 23z"/><path fill-rule="evenodd" clip-rule="evenodd" d="M12 8a2 2 0 100 4 2 2 0 000-4zm-4 2a4 4 0 118 0 4 4 0 01-8 0z"/></symbol><symbol viewBox="0 0 24 24" id="power-usage" xmlns="http://www.w3.org/2000/svg"><path fill-rule="evenodd" clip-rule="evenodd" d="M6.337 5.933a1 1 0 010 1.414 8 8 0 1011.316 0 1 1 0 111.414-1.414 10 10 0 11-14.144 0 1 1 0 011.414 0z"/><path fill-rule="evenodd" clip-rule="evenodd" d="M12 1a1 1 0 011 1v10a1 1 0 11-2 0V2a1 1 0 011-1z"/></symbol><symbol viewBox="0 0 24 24" id="prize-usage" xmlns="http://www.w3.org/2000/svg"><path fill-rule="evenodd" clip-rule="evenodd" d="M3.538 7C3.278 7 3 7.231 3 7.6v4.8c0 .369.278.6.538.6h16.924c.26 0 .538-.231.538-.6V7.6c0-.369-.278-.6-.538-.6H3.538zM1 7.6C1 6.201 2.1 5 3.538 5h16.924C21.9 5 23 6.201 23 7.6v4.8c0 1.399-1.1 2.6-2.538 2.6H3.538C2.1 15 1 13.799 1 12.4V7.6z"/><path fill-rule="evenodd" clip-rule="evenodd" d="M4 13a1 1 0 011 1v6.546a.455.455 0 00.455.454h13.09a.455.455 0 00.455-.454V14a1 1 0 112 0v6.546A2.455 2.455 0 0118.546 23H5.455A2.455 2.455 0 013 20.546V14a1 1 0 011-1z"/><path fill-rule="evenodd" clip-rule="evenodd" d="M12 5a1 1 0 011 1v16a1 1 0 11-2 0V6a1 1 0 011-1z"/><path fill-rule="evenodd" clip-rule="evenodd" d="M6.22 1.375a1 1 0 011.405-.156L12 4.72l4.375-3.5a1 1 0 011.25 1.562l-5 4a1 1 0 01-1.25 0l-5-4a1 1 0 01-.156-1.406z"/></symbol><symbol viewBox="0 0 24 24" id="question-usage" xmlns="http://www.w3.org/2000/svg"><path fill-rule="evenodd" clip-rule="evenodd" d="M3.538 3A.538.538 0 003 3.538v16.924c0 .297.241.538.538.538h16.924a.539.539 0 00.538-.538V3.538A.538.538 0 0020.462 3H3.538zM1 3.538A2.538 2.538 0 013.538 1h16.924A2.538 2.538 0 0123 3.538v16.924A2.538 2.538 0 0120.462 23H3.538A2.538 2.538 0 011 20.462V3.538z"/><path fill-rule="evenodd" clip-rule="evenodd" d="M12.306 7.887a1.571 1.571 0 00-1.878 1.542 1 1 0 11-2 0A3.571 3.571 0 1113 12.857v.857a1 1 0 01-2 0V12a1 1 0 011-1 1.571 1.571 0 00.306-3.113z"/><path d="M12 16.286a1.286 1.286 0 101.285 1.285A1.302 1.302 0 0012 16.287z"/></symbol><symbol viewBox="0 0 24 24" id="repost-usage" xmlns="http://www.w3.org/2000/svg"><g clip-path="url(#beclip0_847_6071)"><path fill-rule="evenodd" clip-rule="evenodd" d="M14.189 1.648a1 1 0 011.09.216l8.57 8.572a1 1 0 01.034 1.38l-8.572 9.428a1 1 0 01-1.74-.673V16.43H12c-2.296 0-3.638.404-4.998 1.257-1.046.655-2.083 1.556-3.526 2.81-.583.505-1.231 1.068-1.973 1.696a1 1 0 01-1.595-1.08C.07 20.628.235 20.1.41 19.54c.713-2.285 1.584-5.078 3.025-7.42 1.85-3.005 4.709-5.405 9.423-5.405h.714V2.571a1 1 0 01.618-.923zm1.382 3.338v2.728a1 1 0 01-1 1h-1.714c-3.857 0-6.14 1.887-7.72 4.453-.985 1.602-1.67 3.417-2.252 5.193 1.129-.972 2.099-1.77 3.054-2.368 1.733-1.087 3.458-1.563 6.06-1.563h2.572a1 1 0 011 1v2.556l6.19-6.81-6.19-6.19z"/></g><defs><clipPath id="beclip0_847_6071"><path d="M0 0h24v24H0z"/></clipPath></defs></symbol><symbol viewBox="0 0 24 24" id="search-usage" xmlns="http://www.w3.org/2000/svg"><path fill-rule="evenodd" clip-rule="evenodd" d="M11 4a7 7 0 100 14 7 7 0 000-14zm-9 7a9 9 0 1118 0 9 9 0 01-18 0z"/><path fill-rule="evenodd" clip-rule="evenodd" d="M15.943 15.943a1 1 0 011.414 0l4.35 4.35a1 1 0 01-1.414 1.414l-4.35-4.35a1 1 0 010-1.414z"/></symbol><symbol viewBox="0 0 24 24" id="show-usage" xmlns="http://www.w3.org/2000/svg"><g clip-path="url(#bgclip0_847_8732)" fill-rule="evenodd" clip-rule="evenodd"><path d="M2.059 11.526a.714.714 0 000 .948c.868.934 2.276 2.293 4.022 3.414 1.757 1.126 3.788 1.97 5.92 1.97 2.13 0 4.162-.844 5.918-1.97 1.747-1.121 3.154-2.48 4.023-3.414a.714.714 0 000-.948c-.869-.934-2.276-2.293-4.023-3.414-1.756-1.126-3.788-1.97-5.919-1.97-2.13 0-4.162.844-5.919 1.97-1.746 1.121-3.154 2.48-4.022 3.414zm2.943-5.097C6.94 5.186 9.348 4.143 12 4.143S17.06 5.186 19 6.429c1.943 1.247 3.482 2.739 4.414 3.742l.01.01a2.714 2.714 0 010 3.638l-.01.01c-.932 1.003-2.471 2.495-4.414 3.742-1.938 1.243-4.347 2.286-6.999 2.286-2.652 0-5.06-1.043-6.998-2.286-1.944-1.247-3.482-2.739-4.414-3.742l-.01-.01a2.714 2.714 0 010-3.638l.01-.01c.932-1.003 2.47-2.495 4.414-3.742z"/><path d="M12 9.571a2.429 2.429 0 100 4.857 2.429 2.429 0 000-4.857zM7.572 12a4.429 4.429 0 118.857 0 4.429 4.429 0 01-8.857 0z"/></g><defs><clipPath id="bgclip0_847_8732"><path d="M0 0h24v24H0z"/></clipPath></defs></symbol><symbol viewBox="0 0 24 24" id="ticket-usage" xmlns="http://www.w3.org/2000/svg"><g clip-path="url(#bhclip0_1049_11679)" fill-rule="evenodd" clip-rule="evenodd"><path d="M8.338 4.77a1 1 0 00-.591-1.904l-.669.154a1 1 0 00-.75 1.198 1.04 1.04 0 01-.793 1.25 1.091 1.091 0 01-1.286-.824 1 1 0 00-1.176-.755l-1.337.274-.012.003A2.388 2.388 0 00-.082 7.088l.104.479a915.652 915.652 0 001.23 5.594 1 1 0 101.953-.436 927.388 927.388 0 01-1.228-5.582l-.107-.495a1.004 1.004 0 00-.012-.048.388.388 0 01.288-.48l.53-.108a3.091 3.091 0 003.273 1.412h.004A3.04 3.04 0 008.338 4.77zM13.722.525a2.526 2.526 0 011.96.027l1.389.651a1 1 0 01.481 1.329 1.265 1.265 0 00.665 1.703 1.263 1.263 0 001.67-.747 1 1 0 011.323-.59l1.457.6.063.029a2.526 2.526 0 011.22 3.207l-.006.017-6.515 15.326-.001.004a2.526 2.526 0 01-3.292 1.334l-.008-.004-6.96-2.965-.003-.002a2.526 2.526 0 01-1.333-3.292l.007-.018.752-1.708 5.76-13.558A2.526 2.526 0 0113.721.525zm1.136 1.85a.526.526 0 00-.67.281v.002L8.424 16.226l-.75 1.703a.526.526 0 00.28.678h.001l6.953 2.963a.526.526 0 00.682-.278v-.001L22.098 5.98a.525.525 0 00-.233-.65l-.603-.248a3.264 3.264 0 01-5.802-2.426l-.602-.282z"/></g><defs><clipPath id="bhclip0_1049_11679"><path fill="#fff" d="M0 0h24v24H0z"/></clipPath></defs></symbol><symbol viewBox="0 0 24 24" id="trash-usage" xmlns="http://www.w3.org/2000/svg"><path fill-rule="evenodd" clip-rule="evenodd" d="M2 6a1 1 0 011-1h18a1 1 0 110 2H3a1 1 0 01-1-1z"/><path fill-rule="evenodd" clip-rule="evenodd" d="M10 3a1 1 0 00-1 1v1h6V4a1 1 0 00-1-1h-4zm7 2V4a3 3 0 00-3-3h-4a3 3 0 00-3 3v1H5a1 1 0 00-1 1v14a3 3 0 003 3h10a3 3 0 003-3V6a1 1 0 00-1-1h-2zM6 7v13a1 1 0 001 1h10a1 1 0 001-1V7H6z"/></symbol><symbol viewBox="0 0 24 24" id="user-usage" xmlns="http://www.w3.org/2000/svg"><path fill-rule="evenodd" clip-rule="evenodd" d="M4.464 15.464A5 5 0 018 14h8a5 5 0 015 5v2a1 1 0 11-2 0v-2a3 3 0 00-3-3H8a3 3 0 00-3 3v2a1 1 0 11-2 0v-2a5 5 0 011.464-3.536zM12 4a3 3 0 100 6 3 3 0 000-6zM7 7a5 5 0 1110 0A5 5 0 017 7z"/></symbol><symbol viewBox="0 0 40 40" id="vk-usage" xmlns="http://www.w3.org/2000/svg"><path d="M38.974 9.736c.175-.864-.21-1.349-1.117-1.349h-4.572c-1.047 0-1.431.45-1.745 1.107 0 0-2.424 5.476-5.432 8.766-.966 1.063-1.135 1.383-1.668 1.383-.43 0-.628-.355-.628-1.314V9.922c0-1.176-.138-1.535-1.117-1.535h-7.278c-.562 0-.937.303-.937.743 0 1.107 1.71 1.357 1.71 4.358v6.193c0 1.245-.07 1.73-.663 1.73-1.57 0-5.65-5.33-7.743-11.42-.42-1.245-.871-1.604-2.062-1.604h-4.56C.498 8.387 0 8.85 0 9.507c0 1.21 1.43 6.815 7.05 14.322 3.77 5.05 9.048 7.784 13.515 7.784 2.723 0 3.247-.468 3.247-1.61v-3.875c0-.968.383-1.384.942-1.384.628 0 1.555.22 4.147 2.752 3.07 2.906 3.28 4.117 4.956 4.117h5.13c.524 0 1.013-.242 1.013-1.107 0-1.142-1.501-3.183-3.805-5.604-.942-1.246-2.478-2.595-2.967-3.218-.698-.726-.488-1.142 0-1.902 0 0 5.222-7.624 5.746-10.046z"/></symbol><symbol viewBox="0 0 40 40" id="youtube-usage" xmlns="http://www.w3.org/2000/svg"><path fill-rule="evenodd" clip-rule="evenodd" d="M5.635 6.681C2.805 6.816.533 8.948.349 11.669.173 14.276 0 17.483 0 20c0 2.517.173 5.724.35 8.331.183 2.72 2.456 4.853 5.285 4.988 4.097.195 9.953.431 14.365.431 4.412 0 10.268-.236 14.365-.431 2.83-.135 5.102-2.267 5.286-4.988.176-2.607.349-5.814.349-8.331 0-2.517-.173-5.724-.35-8.331-.183-2.72-2.456-4.853-5.285-4.988C30.268 6.486 24.412 6.25 20 6.25c-4.412 0-10.268.236-14.365.431zM27.5 20l-11.25 6.25v-12.5L27.5 20z"/></symbol></svg>