<svg width="312" height="312" viewBox="0 0 312 312" fill="none" xmlns="http://www.w3.org/2000/svg"><path d="M127.773 65.06c.177-.356.354-.71.354-1.242l-.354-.177-2.478-2.836 3.363 1.595c.708-1.418 1.416-2.836 2.3-4.255l-15.573-9.04-17.874-20.741c-.177.177-.354.531-.53.709l16.103 18.613L92.556 35.81c-.531.887-.885 1.596-1.416 2.482l25.307 14.536-26.015-12.94c-.354.886-.885 1.772-1.239 2.481l34.333 17.196 2.831 3.19-39.818-13.827c-.177.355-.177.532-.354.887l41.411 14.359.177.886zm5.486-10.105l-34.51-28.01c-.176.178-.353.532-.53.71l34.509 28.009c.177-.178.354-.355.531-.71zm-5.663 10.459l-42.827-11.7c-.177.886-.53 1.772-.708 2.836l42.827 11.7c.177-1.064.531-1.95.708-2.836zm84.238 10.281h-10.087l-.708 4.964 21.236 3.368-10.441-8.332zm-9.557-8.863l.177-1.241-1.415.354 1.238.887zm-2.123-1.773l2.477-.532.177-.532-2.831.887.177.177zm-1.239.177l-1.947.355 1.947-.355zm-6.902-6.736l12.565-4.964 1.416-9.04-17.874 10.813 3.893 3.191zm-4.778-3.9l18.759-11.346 2.124-13.295-24.953 21.45 4.07 3.191zm15.75 14.005l-.708 4.431h6.194l-5.486-4.431zm-3.008 12.763l-13.627-2.127 2.301 2.659 10.795 3.014.531-3.546zm-1.062 6.382l-7.079-1.95.531.532 6.548 2.304v-.886zm-.708 9.75l4.601 2.659h.354l-.354-.532-4.601-2.127zm-.177-4.61l.531-3.545-5.132-1.772 4.601 5.318zm-7.433-7.267l-.353-.355-3.186-.886 3.539 1.24zm6.371 14.536l-5.663-.886-4.424-.71 9.203 7.446.884-5.85zm-1.061 6.736l-10.796-8.686-3.716-.532 13.627 13.65.885-4.432zm-1.239 7.8l-17.874-17.904-.708-.177 18.051 20.918.531-2.837zm-3.009-16.309l3.363.532-9.203-5.318 5.84 4.786zm-.708 39.532l-17.874-20.563 6.017 15.422 11.68 6.559.177-1.418zm-13.272-5.85l-6.371-16.663-.885-1.064 4.601 16.132 2.655 1.595zm-7.256-19.145l-1.239-3.191.708 2.659.531.532zm-3.717 12.941l-1.061-3.9.708 3.722.353.178zm-23.714-15.423l-1.238 1.418.531.355.707-1.773zm-.884 2.659l-.885-.532-1.947 2.482v6.027l2.832-7.977zm-2.832.532l1.239-1.418-1.239-.71v2.128zm-.885 1.063v-2.127l-4.07 7.268 4.07-5.141zm-8.671-25.172l-5.486-.887-10.442 4.078-1.415 2.659 4.07 2.304 13.273-8.154zm-14.335 8.509l-3.539-1.95-3.54 6.204 7.079-4.254zm-5.486-14.36l-4.778.887 1.062.177 3.716-1.063zm-3.362 7.978l-.531.177.354.177.177-.354zm-2.478-6.382l-1.593-.177-6.194 1.24 1.416.887 6.371-1.95zm-9.025.355l4.955-.887-9.38-1.418 4.425 2.305zm60.346-42.014l-.177-13.827-4.424-3.546-2.831 5.141.884 4.787 6.548 7.445zm-4.07-18.082l4.07 3.191-.177-10.282-3.893 7.091zm-6.017-3.368l-.177-.532-1.062-.886.708 2.304.531-.886zm-5.309 9.218l-2.478-8.686v2.482l2.478 6.204zm-.354 1.241l-1.947-4.964.177 8.332 1.77-3.368zm-3.008-10.104v-3.369l-1.593-5.85-2.655-2.127 4.248 11.346zm93.44 53.181H213.25l10.618 8.51 5.309.886c0 .354-.177.532-.177.886l-3.893-.532 3.539 2.837c0 .354-.177.709-.177 1.063l-4.955-4.077-22.652-3.545-.531 3.545 27.607 7.446c-.177.886-.531 1.772-.708 2.659l-27.253-7.446-.177.887 26.545 9.218c-.177.354-.176.532-.353.886L199.623 89.7l-.708 4.077 1.062 1.241 13.273 6.559 10.795 1.773c-.177.355-.177.532-.354.886l-7.787-1.241 6.725 3.369c-.354.886-.885 1.772-1.239 2.481l-14.865-7.445-1.062-.177.354.354 14.865 8.687c-.53.886-.884 1.595-1.415 2.481l-7.787-4.431 6.194 7.091c-.177.177-.354.531-.531.709l-7.964-9.219-11.326-6.559-.885 6.028 17.166 14.004c-.176.177-.353.532-.53.709l-16.813-13.65-.707 4.432 13.626 13.473c-.708.709-1.239 1.418-1.946 1.95l-12.211-12.055-.531 3.014 9.91 11.523c-.177.177-.531.354-.708.531l-9.556-10.99-2.478 15.422 1.77 3.014c-.177.177-.531.354-.708.354l-1.239-1.95-.177 1.241.885 1.064c-.177.177-.531.354-.708.532l-.354-.355-.177.709c-.354.178-.885.355-1.238.709l-10.796-6.027 3.54 9.396c-.354.177-.531.177-.885.354l-4.07-10.459-2.832-1.595 3.716 13.118c-2.123.709-4.247 1.241-6.548 1.773l-5.486-19.5-.53-.355 3.893 20.386c-.354 0-.531.178-.885.178l-4.07-21.096-8.318-4.609.354 26.946h-.885l-.354-27.478-6.725-3.722-4.955 30.49c-.354 0-.531-.177-.885-.177L148.479 117l-6.017-3.368-3.54 10.104.354 23.046c-.354 0-.531-.177-.885-.177l-.177-20.387-6.371 18.436c-.354-.177-.531-.177-.885-.354l7.256-20.741v-7.445l-6.548 8.154-9.025 16.309c-1.947-1.063-4.07-2.127-5.84-3.368l16.281-29.25-2.654-1.418-20.706 25.704c-.177-.177-.531-.354-.708-.531l20.706-25.528-5.84-3.368-23.537 20.386c-.177-.177-.354-.531-.531-.709l23.36-20.031-6.725-3.723-8.849 5.318-9.379 16.664a75.191 75.191 0 01-4.424-6.028l1.946-3.545-3.185 1.95c-.177-.177-.354-.532-.531-.709l4.424-2.659 7.079-12.764-16.104 6.382-1.062-2.659 19.29-7.623-1.062-.532-19.29 5.496c-.708-2.127-1.239-4.255-1.77-6.56l12.742-3.722-1.592-.886L83 89.168c0-.354-.177-.532-.177-.886l10.618-2.127-5.486-3.191-6.017-.887v-.886l3.716.532-3.893-2.128v-1.063l6.548 3.722 14.157 2.305 9.203-1.773 3.716-6.559H81.938v-2.835h35.04l1.416-2.66 4.778 2.66h3.185v2.836h-3.185l-2.655 4.964 6.194-1.773c.354 2.66 1.239 5.318 2.301 7.8l-3.186 1.241 4.071.71c.177.531.531.886.707 1.24l-13.449 8.155 6.548 3.722 9.556-8.154c.177.177.354.354.531.709l-9.379 7.977 5.84 3.191 6.724-8.154c.177.177.531.354.708.531l-6.548 8.155 2.478 1.418 4.955-8.864c1.77 1.419 3.717 2.482 5.84 3.369l-4.955 8.863 1.593.887 2.831-3.546 1.947-5.673c.354.178.531.178.885.355l-1.239 3.368 2.478-3.013c.354 0 .708.177.884.177l-4.247 5.141-1.416 4.254 5.84 3.191 1.947-12.232c.354 0 .531.178.885.178L149.894 117l6.548 3.723-.177-15.955h.885l.177 16.486 8.141 4.61-2.655-13.473-2.124-7.8c2.301-.355 4.602-.886 6.725-1.773l4.955 12.941 18.759 20.918.177-1.595-20.705-34.923c.177-.177.531-.355.708-.532l20.174 34.037 2.478-15.069-18.759-21.45c1.062-.886 1.947-1.772 3.009-2.836l2.3 2.305 3.363.531-4.779-3.9c.177-.177.354-.531.531-.709l6.017 4.787 4.425.709-9.026-7.446c.885-1.24 1.593-2.659 2.124-4.077l14.865 7.445-6.017-7.09-7.786-2.66c.353-1.063.707-2.304 1.061-3.368l2.124.532-1.77-2.127c0-.355.177-.886.177-1.241l14.689 2.305.708-4.787h-15.22v-2.836h15.751l.884-5.141-2.3-1.773-12.742 2.482-1.947.532c-.354-2.482-1.238-4.786-2.123-7.091l7.963-3.191-3.893-3.014-5.663 3.369c-.177-.178-.354-.532-.531-.71l5.309-3.19-3.893-3.191-3.717 3.19c-.177-.177-.354-.354-.531-.709l3.717-3.19-4.247-3.369-2.655 3.369c-.177-.178-.531-.355-.708-.532l2.655-3.369-1.593-1.418-2.124 3.9c-1.769-1.24-3.716-2.482-5.84-3.368l2.832-4.963-1.947-1.596-2.123 6.027c-.354-.177-.531-.177-.885-.354L167.768 39l-4.601-3.723-1.416 9.041c-.354 0-.531-.177-.885-.177l1.593-9.573-5.663-4.609.177 14.005h-1.239l-5.84-6.737.708 3.9.885 3.191c-2.301.355-4.424 1.064-6.548 1.95l-1.77-6.027-3.008 5.495 1.416 2.305c-.177.177-.531.354-.708.532l-1.062-1.95-1.239 2.304v1.241c-.354.178-.531.355-.885.71v-.355l-.177.354.177.178a2.443 2.443 0 01-.708.531l-.53-.531-.708-.355 1.061 1.064c-.707.709-1.415 1.24-1.946 1.95l-8.318-8.332-26.014-20.386c.177-.178.354-.532.53-.71L118.748 39l-16.282-16.31 1.947-1.95 26.545 26.592.354-.71-24.422-28.186c.177-.177.531-.354.708-.532l24.245 28.01 3.186-5.496-17.52-29.604c.177-.178.531-.355.708-.532l17.343 29.073 1.238-2.128-.176-12.231-5.664-14.891-4.778-3.9c.354-.178.531-.355.885-.355l3.186 2.66-1.239-3.37c.354-.176.531-.176.885-.354l1.769 4.787 2.832 2.304-2.301-7.977c2.124-.71 4.248-1.418 6.548-1.95l4.778 17.195 1.239 1.064-3.716-18.79c.354 0 .531-.178.885-.178l3.893 19.677 9.025-16.132V0h.885v3.368l1.77-3.19c2.478 0 4.955.177 7.433.531l-9.026 16.31.177 12.408 5.84 4.787L167.237.886c.354 0 .531.178.885.178l-5.486 33.681 4.778 3.9L179.448 3.9c.354.177.531.177.885.355l-12.034 35.1 2.124 1.595L189.005 7.8c1.946 1.064 4.07 2.127 5.84 3.368l-19.113 34.214 1.77 1.418 24.599-30.49c.177.176.53.354.707.53L178.21 47.333l4.247 3.545 25.838-22.336.884-5.673c.177.355.531.532.708.887l-.708 4.077 2.478-2.128c.177.178.354.532.531.71l-3.186 2.836-1.946 13.473 12.034-7.268c.177.177.354.531.531.709l-12.742 7.622-1.416 9.218 18.936-7.622 1.062 2.659-20.529 8.155 21.236-6.028c.708 2.127 1.416 4.255 1.947 6.56L203.87 63.64l-.177.709 24.953-4.964c0 .355.177.532.177.887l-25.307 4.963-.354 2.128 6.725 5.495h20.175v2.836zm-103.351-6.027l-43.888-7.09c0-.355.177-.533.177-.887l43.888 7.09c-.177.355-.177.71-.177.887zM35.572 310.404c-1.416-.886-2.655-1.95-3.54-3.368-.885-1.418-1.238-3.013-1.238-4.786 0-1.773.353-3.368 1.238-4.786.885-1.419 1.947-2.482 3.54-3.369 1.415-.886 3.185-1.241 4.955-1.241 1.416 0 2.831.178 4.07.71 1.239.531 2.3 1.24 3.186 2.304l-2.124 2.127c-1.239-1.418-3.008-2.127-4.778-2.127-1.239 0-2.3.355-3.363.886-1.062.532-1.77 1.241-2.3 2.305-.531.886-.885 2.127-.885 3.368s.354 2.305.885 3.368c.53.887 1.238 1.773 2.3 2.305 1.062.532 2.124.886 3.363.886 1.947 0 3.54-.709 4.778-2.127l2.124 2.127c-.885 1.064-1.947 1.773-3.186 2.305-1.239.532-2.654.709-4.07.709-1.77-.355-3.363-.709-4.955-1.596zm27.253-2.481c.884-.532 1.77-1.241 2.3-2.305.531-1.064.885-2.127.885-3.368s-.354-2.305-.885-3.368c-.53-1.064-1.239-1.773-2.3-2.305-.885-.532-2.124-.886-3.186-.886a6.1 6.1 0 00-3.185.886c-.885.532-1.77 1.241-2.3 2.305-.532 1.063-.886 2.127-.886 3.368s.354 2.304.885 3.368 1.239 1.773 2.3 2.305c.886.531 2.124.886 3.186.886 1.239-.177 2.3-.355 3.186-.886zm-8.141 2.481c-1.416-.886-2.655-1.95-3.54-3.368-.884-1.418-1.238-3.013-1.238-4.786 0-1.773.354-3.368 1.239-4.786.884-1.419 1.946-2.482 3.539-3.369 1.416-.886 3.185-1.241 4.955-1.241s3.54.355 4.955 1.241c1.416.887 2.655 1.95 3.54 3.369.885 1.418 1.239 3.013 1.239 4.786 0 1.773-.354 3.368-1.24 4.786-.884 1.418-1.946 2.482-3.539 3.368-1.415.887-3.185 1.241-4.955 1.241s-3.54-.354-4.955-1.241zm35.217.887v-12.054l-6.017 10.104H82.47l-6.017-9.927v11.877h-3.186v-18.082h2.832l7.079 12.055 7.078-12.055h2.832v18.082H89.9zm18.936-9.041c.708-.709 1.062-1.595 1.062-2.659 0-1.241-.354-2.127-1.062-2.659-.708-.709-1.947-.886-3.362-.886h-3.894v7.268h3.894c1.592 0 2.654-.355 3.362-1.064zm.885-8.332c1.239.532 2.123 1.241 2.654 2.305.708.886.885 2.127.885 3.545 0 1.241-.354 2.482-.885 3.369-.708 1.063-1.592 1.772-2.654 2.304-1.239.532-2.478.709-4.07.709h-4.071v5.318h-3.362v-18.259h7.433c1.592 0 3.008.178 4.07.709zm17.343 10.637l-3.362-7.978-3.363 7.978h6.725zm1.239 2.659h-9.026l-1.769 4.254h-3.54l8.141-18.259h3.362l8.141 18.259h-3.539l-1.77-4.254zm24.421-14.005v18.082h-2.831l-9.91-12.232v12.232h-3.363v-18.082h2.655l10.087 12.232v-12.232h3.362zm13.274 11.7v6.382h-3.363v-6.204l-7.078-11.878h3.539l5.309 8.864 5.309-8.864h3.363l-7.079 11.7zm29.907-2.836h3.185v7.268c-.884.709-1.946 1.241-3.185 1.773a13.801 13.801 0 01-3.893.531c-1.77 0-3.54-.354-4.955-1.241-1.416-.886-2.655-1.95-3.54-3.368-.885-1.418-1.239-3.013-1.239-4.786 0-1.773.354-3.368 1.239-4.786.885-1.419 1.947-2.482 3.54-3.369 1.415-.886 3.185-1.241 4.955-1.241 1.592 0 2.831.178 4.07.71 1.239.531 2.301 1.241 3.185 2.127l-2.123 2.127c-1.416-1.418-3.009-2.127-4.955-2.127-1.239 0-2.478.354-3.363.886-1.062.532-1.77 1.241-2.3 2.305-.531.886-.885 2.127-.885 3.368a6.13 6.13 0 00.885 3.191 7.131 7.131 0 002.3 2.304c1.062.532 2.124.887 3.363.887a8.214 8.214 0 003.716-.887v-5.672zm18.404-5.141c-.708-.709-1.947-.887-3.363-.887h-3.893v7.269h3.893c1.416 0 2.655-.355 3.363-.887.708-.709 1.061-1.595 1.061-2.659.177-1.241-.177-2.127-1.061-2.836zm1.238 14.359l-3.716-5.318h-4.778v5.318h-3.363v-18.259h7.433c1.593 0 3.009.177 4.07.709 1.239.532 2.124 1.241 2.655 2.304.708.887.885 2.128.885 3.546 0 1.418-.354 2.482-1.062 3.545-.708 1.064-1.593 1.773-2.831 2.128l4.247 6.027h-3.54zm19.115-3.368c.884-.532 1.769-1.241 2.3-2.305.531-1.064.885-2.127.885-3.368s-.354-2.305-.885-3.368c-.531-1.064-1.239-1.773-2.3-2.305-.885-.532-2.124-.886-3.186-.886a6.097 6.097 0 00-3.185.886c-.885.532-1.77 1.241-2.301 2.305-.531 1.063-.885 2.127-.885 3.368s.354 2.304.885 3.368 1.239 1.773 2.301 2.305c.884.531 2.123.886 3.185.886 1.239-.177 2.301-.355 3.186-.886zm-8.141 2.481c-1.416-.886-2.655-1.95-3.54-3.368-.884-1.418-1.238-3.013-1.238-4.786 0-1.773.354-3.368 1.238-4.786.885-1.419 1.947-2.482 3.54-3.369 1.416-.886 3.185-1.241 4.955-1.241s3.539.355 4.955 1.241c1.416.887 2.655 1.95 3.54 3.369.884 1.418 1.238 3.013 1.238 4.786 0 1.773-.354 3.368-1.238 4.786-.885 1.418-1.947 2.482-3.54 3.368-1.416.887-3.185 1.241-4.955 1.241s-3.539-.354-4.955-1.241zm20.175-.886c-1.416-1.418-2.124-3.368-2.124-6.027v-10.282h3.363v10.104c0 3.546 1.592 5.318 4.601 5.318 3.008 0 4.601-1.772 4.601-5.318v-10.104h3.363v10.282c0 2.659-.708 4.609-2.124 6.027-1.416 1.418-3.363 2.127-5.84 2.127-2.478 0-4.424-.709-5.84-2.127zm29.2-7.268c.708-.709 1.062-1.596 1.062-2.659 0-1.241-.354-2.128-1.062-2.66-.708-.709-1.947-.886-3.363-.886h-3.893v7.268h3.893c1.593 0 2.655-.354 3.363-1.063zm1.062-8.332c1.238.532 2.123 1.241 2.654 2.304.708.887.885 2.128.885 3.546 0 1.241-.354 2.482-.885 3.368-.708 1.064-1.593 1.773-2.654 2.305-1.239.531-2.478.709-4.071.709h-4.07v5.318h-3.362v-18.259h7.432c1.416 0 2.832.177 4.071.709zm-91.848-22.868H126.71v3.368h58.401v-3.368zM24.599 217.336c0 2.482-.708 4.255-2.478 5.495-1.592 1.241-3.893 1.773-6.548 1.773H6.725v-14.536h8.848c2.655 0 4.779.532 6.548 1.773 1.593 1.24 2.478 3.013 2.478 5.495zm1.77-10.636c-1.593-1.064-3.363-1.773-5.486-2.128-1.947-.354-4.07-.709-6.371-.709H0v48.396h6.725v-21.273h8.848c1.593 0 3.54-.177 5.31-.532 1.946-.354 3.539-1.063 5.132-2.127 1.592-1.064 3.008-2.482 3.893-4.255 1.062-1.772 1.593-4.077 1.593-6.736 0-2.482-.531-4.609-1.416-6.382-.885-1.95-2.124-3.368-3.716-4.254zm38.049 10.636c0 1.773-.354 3.191-1.238 4.077-.885 1.064-1.947 1.773-3.186 2.128-1.416.531-2.831.709-4.424.886-1.77 0-3.362.177-4.778.177h-4.425v-14.536h7.256c1.416 0 2.655 0 4.07.177 1.24.177 2.478.532 3.54 1.064 1.062.532 1.77 1.241 2.478 2.127.53 1.064.707 2.305.707 3.9zm3.894 8.864c2.123-2.305 3.185-5.141 3.185-8.864 0-3.014-.53-5.495-1.77-7.268-1.061-1.773-2.654-3.191-4.6-4.077-1.77-.887-3.894-1.596-6.195-1.773-2.3-.355-4.6-.355-6.724-.355H39.643v48.396h6.724v-21.273h6.371l12.565 20.918.177.177h8.14L60.172 230.1c3.363-.532 6.194-1.95 8.14-3.9zm53.62 1.772c0 2.659-.531 5.141-1.416 7.446-.884 2.304-2.123 4.432-3.716 6.027-1.593 1.773-3.539 3.014-5.663 4.077-2.124 1.064-4.601 1.419-7.256 1.419-2.654 0-5.132-.532-7.256-1.419-2.123-1.063-4.07-2.304-5.663-4.077-1.592-1.773-2.831-3.723-3.716-6.027-.885-2.305-1.239-4.787-1.239-7.446s.354-5.141 1.239-7.445c.885-2.305 2.124-4.432 3.716-6.027 1.593-1.773 3.54-3.014 5.663-4.078 2.124-1.063 4.602-1.418 7.256-1.418 2.655 0 5.132.532 7.256 1.418 2.124 1.064 4.07 2.305 5.663 4.078 1.593 1.772 2.832 3.722 3.716 6.027.885 2.304 1.416 4.786 1.416 7.445zm-.177-18.259a24.17 24.17 0 00-7.963-5.318c-3.009-1.241-6.371-1.95-10.088-1.95-3.716 0-7.079.709-10.087 1.95a24.173 24.173 0 00-7.964 5.318 24.214 24.214 0 00-5.309 7.978c-1.239 3.013-1.947 6.559-1.947 10.104 0 3.545.708 7.091 1.947 10.105 1.239 3.013 3.009 5.85 5.31 7.977a24.173 24.173 0 007.963 5.318c3.008 1.241 6.37 1.95 10.087 1.95 3.717 0 7.079-.709 10.088-1.95a24.17 24.17 0 007.963-5.318 24.203 24.203 0 005.309-7.977c1.239-3.014 1.947-6.56 1.947-10.105 0-3.545-.708-7.091-1.947-10.104a24.197 24.197 0 00-5.309-7.978zm10.796.355h15.397v42.014h6.725v-42.014h15.573v-6.382h-37.695v6.382zm51.144 20.032h22.298v-6.382h-22.298v-13.65h23.891v-6.382H176.97v48.396h31.855v-6.205h-25.13V230.1zm68.665 10.459c-1.593 2.127-3.54 3.723-5.663 4.786-2.124 1.064-4.602 1.596-7.433 1.596-2.478 0-4.955-.532-7.079-1.418-2.124-1.064-3.893-2.305-5.486-4.078-1.593-1.772-2.655-3.722-3.539-6.027-.885-2.304-1.239-4.786-1.239-7.445 0-2.482.354-4.964 1.239-7.269a23.574 23.574 0 013.539-6.204c1.593-1.773 3.362-3.191 5.486-4.255 2.124-1.063 4.424-1.595 6.902-1.595 2.124 0 4.247.532 6.371 1.418 1.947.886 3.716 2.305 5.132 4.077l.354.355 5.663-4.255-.354-.531c-2.124-2.66-4.601-4.61-7.61-5.85-3.008-1.241-6.194-1.773-9.379-1.773-3.539 0-6.902.709-9.91 1.95-3.009 1.241-5.486 3.191-7.787 5.318-2.124 2.305-3.893 4.964-5.132 7.977-1.239 3.014-1.77 6.382-1.77 9.928 0 3.722.708 7.09 1.947 10.104 1.239 3.014 3.008 5.85 5.132 7.977 2.123 2.305 4.778 4.078 7.787 5.319 3.008 1.24 6.194 1.95 9.733 1.95 3.893 0 7.256-.71 10.441-2.128 3.009-1.418 5.663-3.545 7.964-6.559l.354-.354-4.955-4.255-.708 1.241zm52.384-12.586c0 2.659-.531 5.141-1.415 7.445-.885 2.305-2.124 4.432-3.717 6.027-1.592 1.773-3.539 3.014-5.663 4.078-2.123 1.063-4.601 1.418-7.256 1.418-2.654 0-5.132-.532-7.255-1.418-2.124-1.064-4.071-2.305-5.663-4.078-1.593-1.772-2.832-3.722-3.717-6.027-.885-2.304-1.239-4.786-1.239-7.445 0-2.659.531-5.141 1.239-7.446.885-2.304 2.124-4.432 3.717-6.027 1.592-1.773 3.539-3.014 5.663-4.077 2.123-1.064 4.601-1.418 7.255-1.418 2.655 0 5.133.531 7.256 1.418 2.124 1.063 4.071 2.304 5.663 4.077 1.593 1.773 2.832 3.723 3.717 6.027 1.061 2.305 1.415 4.787 1.415 7.446zm5.31-10.105c-1.239-3.013-3.009-5.85-5.31-7.977a24.154 24.154 0 00-7.963-5.318c-3.009-1.241-6.371-1.95-10.088-1.95-3.716 0-7.078.709-10.087 1.95a24.169 24.169 0 00-7.964 5.318 24.224 24.224 0 00-5.309 7.977c-1.238 3.014-1.946 6.559-1.946 10.105 0 3.545.708 7.091 1.946 10.104 1.239 3.014 3.009 5.85 5.309 7.978a24.184 24.184 0 007.964 5.318c3.009 1.241 6.371 1.95 10.087 1.95 3.717 0 7.079-.709 10.088-1.95a24.17 24.17 0 007.963-5.318 24.215 24.215 0 005.31-7.978c1.238-3.013 1.946-6.559 1.946-10.104-.177-3.723-.708-7.091-1.946-10.105z" fill="#003E66"/></svg>