<svg width="307" height="44" viewBox="0 0 307 44" fill="none" xmlns="http://www.w3.org/2000/svg"><g clip-path="url(#clip0_812_5485)" fill="#fff"><path d="M75.146 12.366a8.13 8.13 0 00-2.668-1.071 14.87 14.87 0 00-3.118-.322h-7.147v23.81h3.29V24.334h4.382a11.89 11.89 0 002.604-.31 7.932 7.932 0 002.56-1.072 6.001 6.001 0 001.94-2.015c.538-1.01.8-2.145.761-3.29a6.537 6.537 0 00-.718-3.214 5.498 5.498 0 00-1.886-2.068zm-.878 5.261a3.064 3.064 0 01-1.19 2.69c-.95.63-2.076.942-3.214.89h-4.362V14.08h4.383a5.357 5.357 0 013.215.878 3.065 3.065 0 011.168 2.69v-.022zm21.548 4.383a6.01 6.01 0 001.597-4.286 6.504 6.504 0 00-.868-3.579 5.626 5.626 0 00-2.25-2.09 9.516 9.516 0 00-3.044-.878 26.8 26.8 0 00-3.386-.204h-6.15v23.81h3.29V24.335h3.107l6.183 10.319.075.129h3.996l-6.579-10.801a7.2 7.2 0 004.03-1.972zm-1.897-4.286a3.107 3.107 0 01-.6 2.046c-.421.495-.97.866-1.585 1.072a7.841 7.841 0 01-2.208.407c-.835 0-1.618.065-2.336.065h-2.143V14.08h3.59c.662.001 1.324.04 1.982.118.593.076 1.168.25 1.704.514.49.24.905.611 1.2 1.071a3.44 3.44 0 01.397 1.865v.075zm28.235-3.794a12.284 12.284 0 00-3.89-2.635 13.554 13.554 0 00-9.933 0 11.69 11.69 0 00-6.429 6.579 13.15 13.15 0 00-.932 4.993 13.16 13.16 0 00.932 4.972 11.994 11.994 0 002.572 3.965 11.845 11.845 0 003.911 2.604 13.405 13.405 0 009.933 0 12.071 12.071 0 003.836-2.583 11.852 11.852 0 002.582-3.965 13.928 13.928 0 000-9.965 11.852 11.852 0 00-2.582-3.964zm0 8.959a10.089 10.089 0 01-.654 3.654 9.304 9.304 0 01-1.789 2.968 8.506 8.506 0 01-2.808 2.003 8.818 8.818 0 01-10.018-2.003 9.132 9.132 0 01-1.875-2.968 10.594 10.594 0 010-7.33 9.137 9.137 0 011.832-2.99 8.795 8.795 0 0112.858 0 9.307 9.307 0 011.832 2.99c.433 1.176.644 2.423.622 3.676zm5.293-8.809h7.651v20.702h3.29V14.081h7.64v-3.108h-18.581v3.108zm25.192 9.848h11.015V20.82h-11.015v-6.74h11.798v-3.107h-15.098v23.799h15.698v-3.108h-12.398v-7.736zm33.807 5.186a8.445 8.445 0 01-2.808 2.347 8.192 8.192 0 01-3.696.814 8.039 8.039 0 01-3.472-.74 8.408 8.408 0 01-2.679-2.024 9.184 9.184 0 01-1.768-2.98 10.67 10.67 0 01-.632-3.685 10.26 10.26 0 01.632-3.58 9.374 9.374 0 011.789-3.01 8.51 8.51 0 012.711-2.058 7.74 7.74 0 013.429-.76 7.3 7.3 0 013.108.685 6.37 6.37 0 012.486 2.026l.15.214 2.829-2.068-.172-.214a8.89 8.89 0 00-3.761-2.786 12.658 12.658 0 00-4.64-.88 11.786 11.786 0 00-4.843.987 11.79 11.79 0 00-6.311 6.622c-.6 1.566-.902 3.23-.89 4.907a13.211 13.211 0 00.922 4.983 12.363 12.363 0 002.539 3.943 11.535 11.535 0 003.815 2.615c1.507.642 3.13.967 4.768.953 1.757.027 3.499-.32 5.111-1.018a9.936 9.936 0 003.89-3.214l.15-.204-2.475-2.079-.182.204zm28.449-11.219a11.905 11.905 0 00-2.593-3.964 12.128 12.128 0 00-3.901-2.636 13.575 13.575 0 00-9.943 0 12.171 12.171 0 00-3.912 2.614 12.009 12.009 0 00-2.571 3.965 13.348 13.348 0 00-.922 4.993 13.278 13.278 0 00.922 4.972 12.007 12.007 0 002.571 3.965 11.85 11.85 0 003.912 2.604 13.435 13.435 0 009.943 0 11.786 11.786 0 006.494-6.569 13.928 13.928 0 000-9.965v.021zm-2.561 4.994a10.094 10.094 0 01-.665 3.654 9.123 9.123 0 01-1.832 2.968 8.291 8.291 0 01-2.807 2.003 9.143 9.143 0 01-7.201 0 8.83 8.83 0 01-2.818-2.003 9.12 9.12 0 01-1.822-2.99 10.605 10.605 0 010-7.33 9.12 9.12 0 011.822-2.989 8.65 8.65 0 016.429-2.743 8.575 8.575 0 013.59.74 8.4 8.4 0 012.807 2.003 9.136 9.136 0 011.832 2.99c.45 1.18.676 2.434.665 3.697zm26.713-3.494a4.43 4.43 0 01-1.715-1.64 4.646 4.646 0 01-.611-2.367 4.527 4.527 0 01.622-2.368 4.427 4.427 0 011.714-1.64 4.964 4.964 0 012.433-.6 5.052 5.052 0 012.003.386 4.069 4.069 0 011.522 1.072l-1.071 1.007a3.155 3.155 0 00-2.39-1.072 3.321 3.321 0 00-1.639.407c-.467.25-.859.62-1.136 1.072a3.276 3.276 0 00-.407 1.629 3.212 3.212 0 00.407 1.618c.275.453.667.823 1.136 1.071a3.308 3.308 0 001.639.397 3.125 3.125 0 002.39-1.072l1.071 1.072c-.419.472-.944.84-1.532 1.071a5.062 5.062 0 01-2.004.386 4.958 4.958 0 01-2.432-.429zm9.376 0a4.402 4.402 0 01-1.725-1.671 4.776 4.776 0 010-4.715 4.402 4.402 0 011.725-1.65 5.046 5.046 0 012.453-.6 5.113 5.113 0 012.465.6 4.42 4.42 0 011.714 1.64c.421.716.636 1.536.622 2.367a4.535 4.535 0 01-.654 2.358 4.42 4.42 0 01-1.714 1.64 5.112 5.112 0 01-2.465.6 5.043 5.043 0 01-2.421-.569zm4.061-1.264a2.988 2.988 0 001.125-1.072 3.425 3.425 0 000-3.214 2.991 2.991 0 00-1.125-1.125 3.216 3.216 0 00-1.608-.408 3.215 3.215 0 00-1.607.408c-.453.27-.824.659-1.071 1.125a3.414 3.414 0 000 3.214c.255.447.625.817 1.071 1.072a3.21 3.21 0 001.607.396 3.216 3.216 0 001.608-.396zm13.254 1.736V13.93l-2.904 4.864h-.739l-2.925-4.832v5.904h-1.575v-8.958h1.361l3.536 5.936 3.482-5.936h1.361v8.958h-1.597zm9.847-8.572c.534.221.992.594 1.318 1.071.314.508.474 1.096.461 1.693.008.6-.151 1.19-.461 1.704a3.052 3.052 0 01-1.318 1.071 4.948 4.948 0 01-2.025.375h-2.004v2.658h-1.66v-8.958h3.664a4.946 4.946 0 012.025.386zm-.45 4.114a1.607 1.607 0 00.557-1.318 1.63 1.63 0 00-.557-1.318 2.593 2.593 0 00-1.65-.46h-1.929v3.557h1.929a2.527 2.527 0 001.65-.46zm9.537 2.379h-4.457l-.879 2.079h-1.714l4.018-8.958h1.628l4.029 8.958h-1.735l-.89-2.079zm-.546-1.296l-1.683-3.922-1.703 3.922h3.386zm12.58-5.583v8.958h-1.361l-4.961-6.065v6.065h-1.64v-8.958h1.361l4.918 6.065v-6.065h1.683zm6.536 5.797v3.16h-1.607v-3.139l-3.504-5.818h1.768l2.614 4.361 2.636-4.361h1.629l-3.536 5.797zM243.44 30.582h1.564v3.568a4.656 4.656 0 01-1.596.847 6.26 6.26 0 01-1.886.3 5.092 5.092 0 01-2.465-.6 4.42 4.42 0 01-1.714-1.64 4.817 4.817 0 010-4.736 4.385 4.385 0 011.725-1.64 5.121 5.121 0 012.475-.6 5.356 5.356 0 012.036.376 4.072 4.072 0 011.543 1.071l-1.071 1.072a3.362 3.362 0 00-2.465-1.072 3.541 3.541 0 00-1.672.397 2.937 2.937 0 00-1.146 1.071 3.213 3.213 0 00-.418 1.64 3.09 3.09 0 00.418 1.607 2.89 2.89 0 001.146 1.125c.507.285 1.08.429 1.661.418a3.635 3.635 0 001.833-.46l.032-2.744zm9.74 4.629l-1.821-2.625h-2.358V35.2h-1.661v-8.904h3.676a4.863 4.863 0 012.014.386c.537.216.997.59 1.318 1.071a3.34 3.34 0 010 3.44 2.88 2.88 0 01-1.404 1.071l2.047 2.947h-1.811zm-.6-7.083a2.508 2.508 0 00-1.639-.46h-1.94v3.568h1.94a2.518 2.518 0 001.639-.472 1.625 1.625 0 00.557-1.328 1.573 1.573 0 00-.557-1.308zm5.968 6.612a4.384 4.384 0 01-1.714-1.65 4.713 4.713 0 010-4.715 4.384 4.384 0 011.714-1.65 5.358 5.358 0 014.919 0 4.354 4.354 0 011.714 1.64 4.743 4.743 0 010 4.735 4.354 4.354 0 01-1.714 1.64 5.363 5.363 0 01-4.919 0zm4.061-1.265c.453-.27.823-.66 1.072-1.125a3.425 3.425 0 000-3.214 2.913 2.913 0 00-1.072-1.125 3.351 3.351 0 00-3.214 0 2.922 2.922 0 00-1.158 1.103 3.425 3.425 0 000 3.215 2.92 2.92 0 001.126 1.125 3.352 3.352 0 003.214 0l.032.021zm5.862.815a4.038 4.038 0 01-1.072-2.98v-5.014h1.65v4.993c0 1.758.761 2.636 2.272 2.636 1.511 0 2.25-.878 2.25-2.636v-4.993h1.629v5.058a4.077 4.077 0 01-1.072 2.978 4.466 4.466 0 01-5.754 0l.097-.043zm14.904-7.651c.538.216.997.59 1.318 1.071.319.506.479 1.096.461 1.693a3.074 3.074 0 01-.461 1.704c-.321.482-.78.856-1.318 1.072a4.86 4.86 0 01-2.014.385h-2.015v2.583h-1.66v-8.851h3.675a4.862 4.862 0 012.014.343zm-.493 4.114a1.819 1.819 0 000-2.625 2.505 2.505 0 00-1.639-.46h-1.897v3.546h1.94a2.505 2.505 0 001.596-.46zM225.449 8.487h1.671v28.77h-1.671V8.488zM12.987 20.756L.257 18.731v-.257l12.72 2.036c-.003.082 0 .164.01.246zm30.003 1.758h-4.854l3.075 2.485 1.564.247v.257l-1.071-.171 1.007.803c0 .097 0 .193-.054.29l-1.553-1.2-6.58-1.072-.17 1.018 7.993 2.143c-.065.268-.14.536-.225.793l-7.898-2.143v.268l7.694 2.668a2.258 2.258 0 01-.086.246l-7.65-2.657-.193 1.19.332.374 3.858 1.929 3.139.493c0 .086-.075.171-.107.246l-2.261-.353 1.982.975c-.128.257-.257.493-.386.74l-4.286-2.144-.321-.053.096.107 4.287 2.507c-.14.236-.268.482-.418.718l-2.293-1.254 1.778 2.047c0 .075-.096.15-.15.225l-2.314-2.668-3.29-1.897-.278 1.747 4.982 4.029-.16.203-4.865-3.943-.215 1.307 3.944 3.933-.59.578-3.514-3.503-.14.868 2.894 3.343-.193.171-2.754-3.214-.718 4.457.514.857-.225.129-.353-.59v.354l.278.311-.235.129-.097-.108v.193l-.364.182-3.14-1.757 1.072 2.722-.247.085-1.264-3-.825-.471 1.071 3.804c-.621.193-1.253.375-1.896.514l-1.597-5.668-.15-.086 1.147 5.925h-.258l-1.189-6.054-2.41-1.35.096 7.812h-.268l-.086-7.962-1.95-1.071-1.436 8.797h-.257l1.436-8.894-1.726-.964-1.071 2.936.086 6.686-.268-.064-.064-5.904-1.844 5.357-.171-.128 2.079-6.033v-2.143l-1.929 2.379-2.7 4.725c-.59-.3-1.158-.621-1.715-.964l4.747-8.476-.771-.428-5.99 7.436-.204-.16 6.012-7.416-1.715-.964-6.793 5.893-.172-.193 6.783-5.829-1.929-1.071-2.571 1.543L4.715 35.5a58.651 58.651 0 01-1.275-1.703l.589-1.072-.9.547c0-.075-.086-.15-.14-.225l1.297-.793 2.057-3.686-4.66 1.853a12.828 12.828 0 01-.311-.771l5.604-2.218-.3-.172-5.604 1.597a22.282 22.282 0 01-.526-1.886l3.697-1.072-.471-.267-3.354.664a2.144 2.144 0 010-.257l3.075-.6-1.618-.9-1.768-.268v-.257l1.072.171-1.072-.632a3.034 3.034 0 000-.31l1.886 1.07 4.083.654 2.657-.525 1.071-1.918H0v-.825h10.18l.428-.771 1.372.771h.878v.825h-.921l-.793 1.415 1.8-.515c.119.775.346 1.529.675 2.24l-.932.375 1.2.193.236.375-3.88 2.357 1.876 1.072 2.775-2.39.172.193-2.7 2.315 1.66.932 1.94-2.39.203.16-1.907 2.358.74.44 1.435-2.572c.528.39 1.1.718 1.704.975l-1.436 2.55.46.257.815-.996.568-1.661.247.096-.343.976.707-.868.279.064-1.222 1.49-.418 1.22 1.682.933.547-3.536h.257l-.59 3.643 1.897 1.072v-4.608h.268v4.769l2.347 1.318-.761-3.912-.643-2.282a8.924 8.924 0 001.94-.525l1.446 3.74 5.497 6.429.075-.44-6.043-10.19.214-.139 5.861 9.88.697-4.372-5.454-6.29c.3-.26.583-.539.846-.836l.686.686.964.15-1.393-1.072a1.49 1.49 0 00.161-.203l1.736 1.414 1.286.204-2.647-2.143c.248-.367.463-.754.643-1.158l4.286 2.143-1.768-2.035-2.282-.793c.107-.322.203-.654.278-.986l.6.16-.428-.632c0-.118 0-.236.053-.353l4.286.675.225-1.383H30.11v-.825h4.554l.236-1.468-.611-.525-3.708.718-.546.161a8.737 8.737 0 00-.632-2.047l2.303-.921-1.071-.9-1.704 1.018a1.466 1.466 0 01-.14-.215l1.555-.942-1.072-.9-1.071.932-.172-.183 1.072-.91-1.243-.997-.793.965-.279-.183.793-.964-.482-.396-.632 1.071a8.147 8.147 0 00-1.715-.954l.793-1.425-.557-.46-.61 1.746-.236-.086.632-1.832-1.361-1.071-.429 2.646h-.246l.45-2.796-1.629-1.35v4.04h-.375l-1.672-1.93.215 1.072.268.932a7.958 7.958 0 00-1.886.547l-.461-1.715-.879 1.586.397.675-.215.14-.332-.558-.364.665v.374l-.257.193v-.118l-.064.118-.193.172-.129-.15-.236-.129.322.322a7.364 7.364 0 00-.579.578l-2.39-2.368-7.307-6.054.171-.193 5.144 4.286L6.01 7.17l.59-.578 7.725 7.704.107-.182L7.33 5.937l.172-.182 7.04 8.111.9-1.607-5.09-8.572.225-.129 5.015 8.454.343-.621V7.844l-1.672-4.286-1.404-1.168.258-.118.932.75-.375-.975.257-.096.525 1.393.836.675-.654-2.315a22.34 22.34 0 011.886-.535l1.414 4.993.365.29-1.061-5.444.246-.054 1.072 5.69 2.604-4.661V.579h.267v.954l.558-.954c.716.017 1.432.07 2.143.161l-2.647 4.715v3.622l1.714 1.382L24.752.815H25l-1.5 9.837 1.393 1.136 3.482-10.084.247.086-3.515 10.169.6.493 5.358-9.644c.589.29 1.157.61 1.714.954l-5.55 9.922.524.418 7.18-8.808.203.15-7.157 8.84 1.253 1.072 7.5-6.43.269-1.66.225.235-.193 1.168.696-.6.172.193-.932.804-.633 3.954 3.494-2.143.128.225-3.675 2.218-.429 2.679 5.486-2.144c.108.258.204.515.3.772l-5.947 2.357 6.162-1.768c.214.62.397 1.249.546 1.886l-7.04 1.94v.182l7.265-1.425v.257l-7.35 1.436-.097.621 1.94 1.575H43v.825h-.01zM15.9 7.094v-.953l-.482-1.693-.771-.654 1.253 3.3zm.836 2.893L16.18 8.53v2.4l.557-.943zm.14-.353l-.718-2.54v.697l.718 1.843zm1.532-2.626v-.15l-.322-.257.193.686.129-.279zm1.725.933l1.157.943V5.926l-1.157 2.015zm1.21 5.272l-.053-3.997-1.286-1.072-.825 1.49.279 1.393 1.886 2.186zM3.837 25.374l1.436-.278-2.7-.429 1.264.707zm2.593-.085l-.418-.065-1.821.354.418.247 1.821-.536zm.707 1.832h-.128.128zm1.008-2.325l-1.404.278h.29l1.114-.278zm1.585 4.168l-1.071-.579-1.018 1.822 2.09-1.243zm4.2-2.497l-1.607-.257-3.085 1.211-.418.74 1.157.653 3.954-2.347zm2.455 7.33v-.643l-1.168 2.143 1.168-1.5zm.257-.322l.353-.428-.364-.193.01.621zm.825-.16l-.247-.14-.568.707v1.726l.815-2.293zm.257-.761l-.343.418.172.096.171-.514zm6.922 4.457l-.321-1.146.214 1.071.107.075zm1.072-3.76l-.354-.922.214.76.14.161zm2.143 5.56l-1.865-4.854-.278-.278 1.318 4.693.825.44zm3.804 1.693l-5.176-5.968 1.725 4.468 3.386 1.897.065-.397zm.225-11.465l.964.16-2.69-1.553 1.726 1.393zm.857 4.758l-5.197-5.186h-.193l5.25 6.054.14-.868zm.364-2.272l-3.107-2.529-1.072-.16 3.965 3.953.214-1.264zm.322-1.972l-1.64-.268-1.275-.203 2.657 2.143.258-1.672zM31.6 25.385l-.085-.096-.943-.257 1.028.353zm2.143 2.143l.161-1.018-1.5-.525 1.34 1.543zm.054 1.308l1.318.771h.096l-.107-.129-1.307-.643zm.193-2.83l-2.047-.556.129.15 1.875.653.043-.246zm.3-1.853l-3.976-.632.665.76 3.15.858.16-.986zm.868-3.75l-.214 1.285h1.789l-1.575-1.285zm-4.554-4.008l5.465-3.29.621-3.868-7.233 6.226 1.147.932zm1.36 1.072l3.622-1.447.429-2.614-5.197 3.128 1.147.933zm2.047 1.982l-.514.14.514-.14zm.332-.064l.729-.14v-.16l-.825.235.096.065zm.622.514l.064-.386-.428.086.364.3zm2.786 2.582h-2.958l-.235 1.425 6.15.986-2.957-2.41zm-24.474-3L.846 16.106c-.075.268-.15.535-.214.803l12.43 3.376c.064-.279.129-.536.214-.804zm1.65-2.979l-10.008-8.1-.16.203 10.008 8.1.16-.203zm-1.628 2.925c0-.117.075-.224.117-.342h-.107l-.707-.815.954.472c.186-.424.404-.832.653-1.222l-4.5-2.593-5.197-6.022-.16.247 4.671 5.357-5.979-3.46c-.14.235-.278.47-.407.717l7.33 4.286-7.576-3.825-.365.74 9.976 4.971.825.943-11.583-4.018c0 .085 0 .16-.075.246l11.99 4.158.14.16z"/></g><defs><clipPath id="clip0_812_5485"><path fill="#fff" d="M0 0h306.778v44H0z"/></clipPath></defs></svg>