<svg width="512" height="73" viewBox="0 0 512 73" fill="none" xmlns="http://www.w3.org/2000/svg"><path d="M125.416 20.516a13.623 13.623 0 00-4.453-1.777 24.967 24.967 0 00-5.204-.534h-11.928v39.502h5.49V40.374h7.314a19.946 19.946 0 004.346-.516 13.286 13.286 0 004.274-1.777 9.987 9.987 0 003.237-3.343 10.776 10.776 0 001.269-5.457 10.78 10.78 0 00-1.198-5.333 9.144 9.144 0 00-3.147-3.432zm-1.467 8.73a5.077 5.077 0 01-1.985 4.462 8.981 8.981 0 01-5.365 1.475h-7.278V23.36h7.314A8.98 8.98 0 01122 24.819a5.083 5.083 0 011.546 1.984c.341.78.479 1.631.403 2.478v-.036zm35.964 7.271a9.935 9.935 0 002.664-7.112c.103-2.076-.4-4.138-1.448-5.937A9.367 9.367 0 00157.373 20a15.948 15.948 0 00-5.078-1.458 45 45 0 00-5.652-.337h-10.265v39.501h5.491V40.374h5.186l10.318 17.12.126.213h6.67l-10.98-17.92a12.047 12.047 0 006.724-3.27zm-3.165-7.112a5.14 5.14 0 01-1.002 3.396 5.968 5.968 0 01-2.647 1.778c-1.189.4-2.429.627-3.684.675-1.395 0-2.7.107-3.898.107h-3.577v-12h5.991c1.106.003 2.21.068 3.308.196.989.127 1.95.415 2.844.853a4.985 4.985 0 012.003 1.778c.509.948.739 2.02.662 3.093v.124zm47.122-6.293a20.494 20.494 0 00-6.492-4.373 22.745 22.745 0 00-16.577 0 19.506 19.506 0 00-6.491 4.364 19.386 19.386 0 00-4.239 6.551 21.689 21.689 0 00-1.556 8.284 21.704 21.704 0 001.556 8.25 19.9 19.9 0 004.292 6.577 19.786 19.786 0 006.527 4.32 22.496 22.496 0 0016.578 0 20.152 20.152 0 006.402-4.284 19.665 19.665 0 004.31-6.578 22.982 22.982 0 000-16.533 19.665 19.665 0 00-4.31-6.578zm0 14.862a16.637 16.637 0 01-1.091 6.062 15.452 15.452 0 01-2.986 4.925 14.196 14.196 0 01-4.686 3.324 14.798 14.798 0 01-8.894.99 14.743 14.743 0 01-7.827-4.314 15.155 15.155 0 01-3.129-4.925 17.483 17.483 0 010-12.16 15.15 15.15 0 013.058-4.96 14.675 14.675 0 014.881-3.424 14.752 14.752 0 0116.579 3.424 15.455 15.455 0 013.058 4.96 16.713 16.713 0 011.037 6.098zm8.834-14.614h12.769v34.347h5.49V23.361h12.751v-5.156h-31.01v5.156zm42.045 16.338h18.384v-5.155h-18.384V23.36h19.689v-5.156h-25.197V57.69h26.199v-5.155h-20.691V39.698zm56.422 8.605a14.07 14.07 0 01-4.686 3.893 13.746 13.746 0 01-6.169 1.351c-2 .026-3.979-.393-5.795-1.226a14.01 14.01 0 01-4.47-3.36 15.218 15.218 0 01-2.951-4.943 17.568 17.568 0 01-1.055-6.115 16.953 16.953 0 011.055-5.938 15.496 15.496 0 012.986-4.995 14.2 14.2 0 014.525-3.414 12.976 12.976 0 015.722-1.262 12.245 12.245 0 015.187 1.138 10.617 10.617 0 014.149 3.36l.25.355 4.721-3.43-.286-.356a14.84 14.84 0 00-6.277-4.622 21.229 21.229 0 00-7.744-1.458 19.771 19.771 0 00-8.083 1.635 19.669 19.669 0 00-6.382 4.436 19.545 19.545 0 00-4.151 6.55 22.182 22.182 0 00-1.484 8.143 21.787 21.787 0 001.538 8.267 20.473 20.473 0 004.238 6.542 19.248 19.248 0 006.366 4.337 19.99 19.99 0 007.958 1.583c2.932.044 5.84-.532 8.531-1.69a16.569 16.569 0 006.491-5.332l.251-.338-4.131-3.449-.304.338zm47.48-18.613a19.73 19.73 0 00-4.328-6.578 20.235 20.235 0 00-6.51-4.373 22.782 22.782 0 00-16.595 0 20.308 20.308 0 00-6.528 4.338 19.9 19.9 0 00-4.292 6.577 22.039 22.039 0 00-1.538 8.285 21.935 21.935 0 001.538 8.248 19.902 19.902 0 004.292 6.578 19.791 19.791 0 006.528 4.32 22.547 22.547 0 0016.595 0 19.684 19.684 0 006.538-4.35 19.559 19.559 0 004.3-6.547 22.982 22.982 0 000-16.534v.036zm-4.274 8.284a16.687 16.687 0 01-1.109 6.062 15.15 15.15 0 01-3.058 4.925 13.84 13.84 0 01-4.686 3.324 15.329 15.329 0 01-12.017 0 14.738 14.738 0 01-4.704-3.324 15.1 15.1 0 01-3.04-4.96 17.483 17.483 0 010-12.16 15.1 15.1 0 013.04-4.96 14.444 14.444 0 014.882-3.401 14.509 14.509 0 015.848-1.15 14.377 14.377 0 015.991 1.227 14.016 14.016 0 014.686 3.324 15.149 15.149 0 013.058 4.96 16.722 16.722 0 011.109 6.133zm44.582-5.796a7.366 7.366 0 01-2.861-2.72 7.661 7.661 0 01-1.019-3.928 7.466 7.466 0 011.037-3.93 7.366 7.366 0 012.861-2.72 8.322 8.322 0 014.06-.995 8.481 8.481 0 013.344.64c.973.39 1.842.998 2.54 1.778l-1.789 1.671a5.25 5.25 0 00-1.799-1.32 5.286 5.286 0 00-2.189-.458 5.57 5.57 0 00-2.736.676 4.985 4.985 0 00-1.896 1.778 5.422 5.422 0 00-.679 2.702 5.312 5.312 0 00.679 2.684 4.888 4.888 0 001.896 1.778 5.56 5.56 0 002.736.658 5.244 5.244 0 003.988-1.778l1.789 1.778a6.71 6.71 0 01-2.558 1.777 8.481 8.481 0 01-3.344.64 8.325 8.325 0 01-4.06-.71zm15.649 0a7.332 7.332 0 01-2.88-2.773 7.895 7.895 0 010-7.822 7.335 7.335 0 012.88-2.738 8.463 8.463 0 014.095-.995 8.572 8.572 0 014.113.995 7.367 7.367 0 012.861 2.72 7.467 7.467 0 011.038 3.929 7.517 7.517 0 01-1.091 3.911 7.369 7.369 0 01-2.862 2.72 8.569 8.569 0 01-4.113.995 8.46 8.46 0 01-4.041-.942zm6.777-2.097a4.971 4.971 0 001.878-1.778 5.643 5.643 0 000-5.334 4.977 4.977 0 00-1.878-1.866 5.389 5.389 0 00-2.682-.676 5.395 5.395 0 00-2.683.676 4.8 4.8 0 00-1.788 1.866 5.644 5.644 0 000 5.334 4.796 4.796 0 001.788 1.778 5.39 5.39 0 002.683.657 5.389 5.389 0 002.682-.657zm22.122 2.879v-9.848l-4.847 8.07h-1.233l-4.883-8.017v9.796h-2.628V18.099h2.271l5.901 9.848L443.9 18.1h2.271v14.86h-2.664zm16.434-14.221a4.972 4.972 0 012.2 1.777c.523.844.79 1.819.768 2.81a5.314 5.314 0 01-.768 2.826 5.1 5.1 0 01-2.2 1.778 8.304 8.304 0 01-3.38.622h-3.344v4.409h-2.772V18.099h6.116a8.306 8.306 0 013.38.64zm-.751 6.826a2.685 2.685 0 00.93-2.186 2.712 2.712 0 00-.93-2.187 4.348 4.348 0 00-2.754-.764h-3.219v5.902h3.219a4.24 4.24 0 002.754-.765zm15.917 3.947h-7.44l-1.466 3.449h-2.862l6.707-14.862h2.718l6.724 14.862h-2.897l-1.484-3.45zm-.912-2.151l-2.808-6.507-2.844 6.507h5.652zm20.995-9.262V32.96h-2.272l-8.28-10.062V32.96h-2.736V18.099h2.272l8.208 10.062V18.099h2.808zm10.908 9.617v5.245h-2.682v-5.209l-5.848-9.653h2.951l4.363 7.235 4.399-7.235H512l-5.902 9.617zm-99.807 23.023h2.611v5.92a7.766 7.766 0 01-2.665 1.404 10.492 10.492 0 01-3.147.498 8.531 8.531 0 01-4.113-.996 7.369 7.369 0 01-2.862-2.72 7.963 7.963 0 010-7.858 7.297 7.297 0 012.88-2.72 8.586 8.586 0 014.131-.995 8.994 8.994 0 013.398.622 6.794 6.794 0 012.575 1.778l-1.789 1.778a5.59 5.59 0 00-1.869-1.317 5.629 5.629 0 00-2.244-.461 5.933 5.933 0 00-2.79.658 4.89 4.89 0 00-1.913 1.777 5.305 5.305 0 00-.697 2.72 5.109 5.109 0 00.697 2.667 4.817 4.817 0 001.913 1.867 5.484 5.484 0 002.772.693 6.087 6.087 0 003.058-.765l.054-4.55zm16.257 7.679l-3.04-4.355h-3.935V58.4h-2.772V43.627h6.134a8.16 8.16 0 013.362.64 4.786 4.786 0 012.2 1.778 5.524 5.524 0 010 5.707 4.809 4.809 0 01-2.343 1.777l3.416 4.89h-3.022zm-1.002-11.75a4.201 4.201 0 00-2.736-.765h-3.237v5.92h3.237a4.221 4.221 0 002.736-.782 2.672 2.672 0 00.93-2.204 2.61 2.61 0 00-.93-2.169zm9.961 10.968a7.288 7.288 0 01-2.861-2.738 7.784 7.784 0 010-7.822 7.288 7.288 0 012.861-2.737 8.985 8.985 0 018.208 0 7.243 7.243 0 012.862 2.72 7.84 7.84 0 010 7.857 7.243 7.243 0 01-2.862 2.72 8.982 8.982 0 01-8.208 0zm6.778-2.098a4.846 4.846 0 001.788-1.866 5.643 5.643 0 000-5.333 4.846 4.846 0 00-1.788-1.867 5.624 5.624 0 00-5.365 0 4.857 4.857 0 00-1.932 1.831 5.643 5.643 0 000 5.333c.44.784 1.09 1.43 1.878 1.867a5.623 5.623 0 005.365 0l.054.035zm9.782 1.352a6.696 6.696 0 01-1.788-4.943v-8.32h2.754v8.285c0 2.915 1.269 4.373 3.791 4.373 2.522 0 3.755-1.458 3.755-4.373v-8.285h2.719v8.391a6.738 6.738 0 01-1.789 4.943 7.481 7.481 0 01-4.801 1.74 7.484 7.484 0 01-4.802-1.74l.161-.072zm24.875-12.694a4.786 4.786 0 012.2 1.778c.531.84.799 1.817.769 2.809.027.996-.24 1.98-.769 2.826a4.786 4.786 0 01-2.2 1.778 8.159 8.159 0 01-3.362.64h-3.362v4.285h-2.772V43.627h6.134a8.16 8.16 0 013.362.57zm-.822 6.827a3.015 3.015 0 000-4.356 4.205 4.205 0 00-2.736-.764h-3.166v5.884h3.237c.95.054 1.89-.216 2.665-.764zm-95.855-36.942h2.79v47.733h-2.79V14.08zM21.675 34.436L.429 31.076v-.426l21.228 3.377c-.004.137.002.274.018.41zm50.073 2.916h-8.101l5.132 4.124 2.611.41v.426l-1.788-.285 1.681 1.334c0 .16 0 .32-.09.48L68.6 41.849l-10.98-1.777-.286 1.689 13.341 3.555a15.88 15.88 0 01-.376 1.316l-13.18-3.556v.445l12.84 4.426c-.039.14-.087.276-.142.41l-12.77-4.41-.321 1.974.554.622 6.438 3.2 5.24.817c0 .143-.125.285-.179.41l-3.773-.587L68.314 52c-.214.427-.429.818-.643 1.227l-7.154-3.555-.536-.09.16.178 7.154 4.16c-.233.392-.447.8-.697 1.192l-3.828-2.08 2.97 3.395c0 .125-.162.249-.251.373l-3.863-4.426-5.49-3.147-.465 2.898 8.316 6.684-.269.338-8.119-6.542-.357 2.169 6.58 6.524-.983.96-5.866-5.813-.232 1.44 4.828 5.547-.322.284-4.596-5.333-1.198 7.395.859 1.422-.376.214-.59-.978v.587l.465.515-.394.213-.16-.177v.32l-.608.302-5.24-2.916 1.788 4.516-.411.142-2.11-4.978-1.378-.782 1.789 6.311c-1.037.32-2.093.622-3.166.853l-2.664-9.404-.25-.142 1.913 9.831h-.43l-1.984-10.044-4.024-2.24.161 12.96h-.447l-.143-13.21-3.255-1.777-2.396 14.595h-.43l2.397-14.755-2.88-1.6-1.788 4.871.143 11.093-.447-.106-.107-9.796-3.076 8.889-.286-.213 3.47-10.01V56.73l-3.22 3.947-4.506 7.84a40.627 40.627 0 01-2.862-1.6l7.923-14.062-1.288-.711-9.997 12.337-.34-.266 10.033-12.302-2.861-1.6L8.942 60.09l-.286-.32 11.32-9.67-3.22-1.778-4.291 2.56-4.596 8.017a97.38 97.38 0 01-2.128-2.826l.983-1.778-1.502.907c0-.125-.143-.25-.233-.374l2.164-1.315 3.434-6.116-7.78 3.076a21.237 21.237 0 01-.518-1.28l9.353-3.68-.5-.285-9.354 2.65a36.793 36.793 0 01-.876-3.13l6.17-1.778-.787-.444-5.598 1.102a3.535 3.535 0 010-.426l5.133-.996-2.7-1.493-2.951-.445v-.426l1.788.284-1.787-1.05a5.002 5.002 0 000-.515l3.147 1.777 6.814 1.085 4.435-.871 1.788-3.182H0v-1.369h16.99l.715-1.28L19.994 36h1.466v1.369h-1.538l-1.323 2.346 3.004-.853a13.786 13.786 0 001.127 3.715l-1.556.623 2.003.32.393.622-6.474 3.91 3.13 1.779 4.632-3.965.286.32-4.507 3.84 2.772 1.547 3.237-3.965.34.267-3.183 3.911 1.234.729 2.396-4.267a13.92 13.92 0 002.843 1.618l-2.396 4.231.77.427 1.358-1.653.948-2.756.411.16-.572 1.618 1.18-1.44.465.106-2.038 2.472-.698 2.026 2.808 1.547.912-5.867h.43l-.984 6.045 3.165 1.777v-7.644h.447v7.911l3.916 2.187-1.27-6.49-1.072-3.786a14.966 14.966 0 003.237-.87l2.414 6.204 9.174 10.666.125-.729L42.92 49.103l.358-.231 9.782 16.39 1.162-7.253-9.102-10.435c.501-.43.973-.894 1.413-1.387l1.144 1.138 1.61.249-2.325-1.778c.099-.105.188-.218.268-.338l2.897 2.347 2.146.338-4.417-3.556a12.58 12.58 0 001.073-1.92l7.153 3.556-2.95-3.378-3.81-1.316c.18-.533.34-1.084.465-1.635l1.002.267-.716-1.05c0-.195 0-.39.09-.586l7.153 1.12.376-2.293h-7.44v-1.369h7.6l.394-2.436-1.02-.87-6.187 1.19-.912.267a14.427 14.427 0 00-1.055-3.396l3.845-1.528-1.788-1.494-2.844 1.69a2.44 2.44 0 01-.232-.356l2.593-1.565-1.789-1.493-1.788 1.546-.286-.302 1.788-1.51-2.074-1.654-1.324 1.6-.465-.302 1.324-1.6-.805-.658-1.055 1.778a13.615 13.615 0 00-2.861-1.582l1.323-2.365-.93-.764-1.02 2.897-.393-.142 1.055-3.04-2.27-1.778-.716 4.392h-.412l.752-4.64-2.719-2.24v6.702h-.626l-2.79-3.2.358 1.777.447 1.547c-1.082.172-2.14.477-3.147.907l-.77-2.845-1.466 2.632.662 1.12-.358.23-.554-.924-.608 1.102v.623l-.43.32v-.196l-.107.196-.321.284-.215-.249-.393-.213.536.533c-.34.302-.662.623-.966.96l-3.988-3.929L9.05 12.961l.286-.32 8.584 7.111-7.886-7.858.983-.96L23.91 23.716l.179-.302L12.232 9.85l.286-.302 11.75 13.457 1.502-2.666-8.495-14.222.376-.214 8.37 14.027.572-1.031v-5.885l-2.79-7.11-2.343-1.939.43-.195 1.555 1.244-.626-1.617.43-.16.876 2.31 1.395 1.12-1.091-3.84a37.45 37.45 0 013.147-.888l2.36 8.284.609.48-1.77-9.03.41-.09 1.789 9.44L35.32 3.29V.96h.447v1.582l.93-1.582a35.04 35.04 0 013.576.267L35.856 9.05v6.009l2.861 2.293 2.593-16h.412l-2.504 16.32 2.325 1.884 5.812-16.728.411.142-5.865 16.87 1.001.819 8.942-16a34.43 34.43 0 012.861 1.582l-9.263 16.462.876.693L58.3 8.783l.34.25-11.947 14.666 2.093 1.777L61.304 14.81l.447-2.756.376.391-.322 1.938 1.162-.995.286.32-1.556 1.333-1.055 6.56 5.83-3.556.215.374-6.134 3.68-.715 4.444 9.156-3.555c.179.426.34.853.5 1.28l-9.925 3.91 10.283-2.933c.358 1.027.663 2.071.912 3.13l-11.749 3.217v.302L71.14 29.53v.426L58.872 32.34l-.161 1.03 3.237 2.614h9.818v1.366h-.018zM26.538 11.77v-1.582l-.804-2.81-1.288-1.084 2.093 5.476zm1.396 4.8l-.93-2.418v3.982l.93-1.564zm.232-.587l-1.198-4.213v1.155l1.198 3.058zm2.558-4.355v-.25l-.537-.426.322 1.138.215-.462zm2.879 1.546l1.931 1.565V9.832l-1.931 3.342zm2.02 8.747l-.089-6.631-2.146-1.778-1.377 2.471.465 2.311 3.148 3.627zM6.404 42.098l2.396-.462-4.507-.71 2.11 1.172zm4.327-.142l-.697-.107-3.04.587.697.409 3.04-.889zm1.18 3.04h-.214.213zm1.681-3.858l-2.342.463h.482l1.86-.463zm2.647 6.916l-1.788-.96-1.7 3.022 3.488-2.062zm7.01-4.142l-2.682-.427-5.15 2.009-.698 1.227 1.931 1.084 6.6-3.893zm4.096 12.16v-1.067l-1.95 3.555 1.95-2.488zm.429-.534l.59-.71-.608-.32.018 1.03zm1.377-.266l-.412-.231-.947 1.173v2.862l1.359-3.804zm.429-1.263l-.572.694.286.16.286-.854zm11.553 7.396l-.537-1.902.358 1.777.179.125zm1.788-6.24l-.59-1.529.358 1.262.232.267zm3.577 9.226l-3.112-8.053-.465-.462 2.2 7.787 1.377.728zm6.348 2.81l-8.637-9.903 2.879 7.413 5.651 3.147.107-.658zm.376-19.023l1.61.267-4.49-2.578 2.88 2.311zm1.43 7.894l-8.673-8.605h-.322l8.763 10.044.233-1.44zm.608-3.77l-5.186-4.195-1.788-.267 6.617 6.56.358-2.097zm.537-3.27l-2.736-.445-2.128-.338 4.435 3.556.429-2.773zm-3.058-6.916l-.143-.16-1.574-.427 1.717.587zm3.577 3.556l.268-1.69-2.504-.87 2.236 2.56zm.09 2.169l2.199 1.28h.16l-.178-.214-2.182-1.066zm.321-4.694l-3.416-.924.215.249 3.13 1.084.071-.409zm.5-3.075l-6.634-1.05 1.109 1.263 5.257 1.422.269-1.635zm1.45-6.222l-.358 2.133h2.986l-2.629-2.133zm-7.601-6.65l9.12-5.457 1.038-6.418-12.072 10.33 1.914 1.546zm2.271 1.779l6.045-2.4.715-4.338-8.674 5.19 1.914 1.547zm3.416 3.288l-.859.231.859-.23zm.554-.106l1.216-.231v-.267l-1.377.391.161.107zm1.037.853l.108-.64-.716.142.608.498zm4.65 4.284h-4.936l-.393 2.365 10.265 1.635-4.936-4zm-40.846-4.977l-20.744-5.6c-.125.444-.25.889-.358 1.333l20.745 5.6c.107-.462.214-.889.357-1.333zm2.755-4.942L8.207 13.938l-.268.338 16.703 13.44.268-.338zm-2.719 4.853c0-.196.125-.373.197-.57h-.179l-1.18-1.35 1.591.782c.31-.703.675-1.38 1.091-2.027l-7.51-4.302-8.674-9.99-.268.408 7.797 8.889-9.98-5.742c-.232.39-.464.782-.679 1.19l12.232 7.112-12.643-6.347-.608 1.227 16.65 8.249 1.376 1.564L2.074 24.66c0 .142 0 .266-.125.409l20.012 6.897.232.267z" fill="#003E66"/></svg>